<?xml version="1.0" encoding="UTF-8" standalone="no"?>
<!-- Created with Inkscape (http://www.inkscape.org/) -->

<svg
   xmlns:dc="http://purl.org/dc/elements/1.1/"
   xmlns:cc="http://creativecommons.org/ns#"
   xmlns:rdf="http://www.w3.org/1999/02/22-rdf-syntax-ns#"
   xmlns:svg="http://www.w3.org/2000/svg"
   xmlns="http://www.w3.org/2000/svg"
   xmlns:sodipodi="http://sodipodi.sourceforge.net/DTD/sodipodi-0.dtd"
   xmlns:inkscape="http://www.inkscape.org/namespaces/inkscape"
   width="210mm"
   height="297mm"
   viewBox="0 0 210 297"
   version="1.1"
   id="svg8"
   inkscape:version="0.92.2 5c3e80d, 2017-08-06"
   sodipodi:docname="MDinitials.svg">
  <defs
     id="defs2" />
  <sodipodi:namedview
     id="base"
     pagecolor="#ffffff"
     bordercolor="#666666"
     borderopacity="1.0"
     inkscape:pageopacity="0.0"
     inkscape:pageshadow="2"
     inkscape:zoom="0.5"
     inkscape:cx="781.58191"
     inkscape:cy="504.01638"
     inkscape:document-units="mm"
     inkscape:current-layer="layer1"
     showgrid="false"
     inkscape:window-width="1912"
     inkscape:window-height="916"
     inkscape:window-x="166"
     inkscape:window-y="26"
     inkscape:window-maximized="0" />
  <metadata
     id="metadata5">
    <rdf:RDF>
      <cc:Work
         rdf:about="">
        <dc:format>image/svg+xml</dc:format>
        <dc:type
           rdf:resource="http://purl.org/dc/dcmitype/StillImage" />
        <dc:title></dc:title>
      </cc:Work>
    </rdf:RDF>
  </metadata>
  <g
     inkscape:label="Layer 1"
     inkscape:groupmode="layer"
     id="layer1"
     style="opacity:0.99">
    <path
       style="opacity:0.98000004;fill:#00d4d4;fill-opacity:1;stroke:none;stroke-width:182.93214417;stroke-miterlimit:4;stroke-dasharray:none;stroke-opacity:1"
       d="m 35.515999,86.508999 a 23.958804,24.222725 0 0 0 0.341206,2.289587 23.958804,24.222725 0 0 0 0.341208,2.28959 23.958804,24.222725 0 0 0 0.654814,2.289587 23.958804,24.222725 0 0 0 1.311936,2.289586 23.958804,24.222725 0 0 0 1.311938,1.962181 23.958804,24.222725 0 0 0 1.639344,1.962174 23.958804,24.222725 0 0 0 1.637044,1.962176 23.958804,24.222725 0 0 0 1.637047,1.63935 23.958804,24.222725 0 0 0 1.962195,1.63705 23.958804,24.222725 0 0 0 1.962196,1.63935 23.958804,24.222725 0 0 0 2.289574,1.31193 23.958804,24.222725 0 0 0 2.289587,0.65024 23.958804,24.222725 0 0 0 2.289583,0.65025 23.958804,24.222725 0 0 0 2.289582,0.20608 23.958804,24.222725 0 0 0 2.289581,0.18313 23.958804,24.222725 0 0 0 1.639347,0 23.958804,24.222725 0 0 0 2.289602,-0.34114 23.958804,24.222725 0 0 0 2.289604,-0.34116 23.958804,24.222725 0 0 0 2.289542,-0.65482 23.958804,24.222725 0 0 0 2.289624,-1.31194 23.958804,24.222725 0 0 0 1.96216,-1.31193 23.958804,24.222725 0 0 0 1.962207,-1.63935 23.958804,24.222725 0 0 0 1.962145,-1.63934 23.958804,24.222725 0 0 0 1.639339,-1.96218 23.958804,24.222725 0 0 0 1.639338,-1.962177 23.958804,24.222725 0 0 0 1.311953,-1.962175 23.958804,24.222725 0 0 0 1.311935,-2.28959 23.958804,24.222725 0 0 0 0.654805,-2.289591 23.958804,24.222725 0 0 0 0.650261,-2.289588 23.958804,24.222725 0 0 0 0.206272,-2.289589 23.958804,24.222725 0 0 0 0.183127,-2.289585 23.958804,24.222725 0 0 0 0,-1.639343 23.958804,24.222725 0 0 0 -0.341206,-2.28959 23.958804,24.222725 0 0 0 -0.341223,-2.289592 23.958804,24.222725 0 0 0 -0.650227,-2.289584 23.958804,24.222725 0 0 0 -1.311902,-1.962179 23.958804,24.222725 0 0 0 -1.311934,-2.289588 23.958804,24.222725 0 0 0 -1.639372,-1.962176 23.958804,24.222725 0 0 0 -1.63932,-1.962178 23.958804,24.222725 0 0 0 -1.637067,-1.639345 23.958804,24.222725 0 0 0 -1.962192,-1.637054 23.958804,24.222725 0 0 0 -1.962141,-1.311937 103.28461,107.15476 0 0 0 -35.452453,22.800406 z"
       id="path843"
       inkscape:connector-curvature="0"
       inkscape:export-xdpi="96"
       inkscape:export-ydpi="96" />
    <path
       style="opacity:0.98000004;fill:#1fd6e0;fill-opacity:1;stroke:none;stroke-width:182.93214417;stroke-miterlimit:4;stroke-dasharray:none;stroke-opacity:1"
       d="m 9.7452836,202.28569 a 10.872066,11.290252 0 0 0 1.3119354,-0.34123 10.872066,11.290252 0 0 0 0.650263,-0.34323 10.872066,11.290252 0 0 0 0.984526,-0.65022 10.872066,11.290252 0 0 0 0.977624,-0.65029 10.872066,11.290252 0 0 0 0.654861,-0.65479 10.872066,11.290252 0 0 0 0.65482,-0.98457 10.872066,11.290252 0 0 0 0.65022,-0.97762 10.872066,11.290252 0 0 0 0.341203,-0.97766 10.872066,11.290252 0 0 0 0.65022,-0.97765 10.872066,11.290252 0 0 0 0.341205,-0.97767 10.872066,11.290252 0 0 0 0.206127,-0.98447 10.872066,11.290252 0 0 0 0.183121,-0.97769 10.872066,11.290252 0 0 0 0,-1.31196 10.872066,11.290252 0 0 0 0,-0.9845 10.872066,11.290252 0 0 0 -0.183121,-0.97766 10.872066,11.290252 0 0 0 -0.206127,-1.31195 10.872066,11.290252 0 0 0 -0.341205,-0.97761 10.872066,11.290252 0 0 0 -0.341205,-0.98455 10.872066,11.290252 0 0 0 -0.650262,-0.97766 10.872066,11.290252 0 0 0 -0.650217,-0.98456 10.872066,11.290252 0 0 0 -0.654819,-0.97759 10.872066,11.290252 0 0 0 -0.654858,-0.97765 10.872066,11.290252 0 0 0 -0.97763,-0.65485 10.872066,11.290252 0 0 0 -0.650261,-0.65022 10.872066,11.290252 0 0 0 -0.984529,-0.65488 10.872066,11.290252 0 0 0 -0.977628,-0.20624 10.872066,11.290252 0 0 0 -0.9776669,-0.34121 10.872066,11.290252 0 0 0 -1.3119365,-0.20626 10.872066,11.290252 0 0 0 -0.984526,0 10.872066,11.290252 0 0 0 -0.65482,0 10.872066,11.290252 0 0 0 -0.977624,0.20626 10.872066,11.290252 0 0 0 -0.9845319,0.20625 103.28461,107.15476 0 0 0 5.4322668,21.75314 103.28461,107.15476 0 0 0 0.2061043,0 z"
       id="path856"
       inkscape:connector-curvature="0"
       inkscape:export-xdpi="96"
       inkscape:export-ydpi="96" />
    <path
       style="opacity:0.98000004;fill:#02dec9;fill-opacity:1;stroke:none;stroke-width:182.93214417;stroke-miterlimit:4;stroke-dasharray:none;stroke-opacity:1"
       d="m 86.048559,269.41002 a 31.206852,31.817984 0 0 0 1.639321,-1.31193 31.206852,31.817984 0 0 0 2.289616,-2.28963 31.206852,31.817984 0 0 0 1.964485,-2.61608 31.206852,31.817984 0 0 0 1.637016,-2.94328 31.206852,31.817984 0 0 0 1.311967,-2.94324 31.206852,31.817984 0 0 0 0.984516,-2.94305 31.206852,31.817984 0 0 0 0.654823,-2.94325 31.206852,31.817984 0 0 0 0.34119,-2.94326 31.206852,31.817984 0 0 0 0.183126,-3.30248 31.206852,31.817984 0 0 0 0,-2.2896 31.206852,31.817984 0 0 0 -0.341206,-2.94328 31.206852,31.817984 0 0 0 -0.650227,-2.94304 31.206852,31.817984 0 0 0 -0.977682,-2.94329 31.206852,31.817984 0 0 0 -1.311918,-2.94325 31.206852,31.817984 0 0 0 -1.639372,-2.94303 31.206852,31.817984 0 0 0 -1.962128,-2.61632 31.206852,31.817984 0 0 0 -1.962213,-2.61608 31.206852,31.817984 0 0 0 -2.289582,-1.96446 31.206852,31.817984 0 0 0 -2.289583,-1.96219 31.206852,31.817984 0 0 0 -2.94326,-1.63931 31.206852,31.817984 0 0 0 -2.943276,-1.31197 31.206852,31.817984 0 0 0 -2.943025,-0.97762 31.206852,31.817984 0 0 0 -2.943278,-0.98451 31.206852,31.817984 0 0 0 -3.268399,-0.34121 31.206852,31.817984 0 0 0 -2.943229,-0.20625 31.206852,31.817984 0 0 0 -2.289604,0 31.206852,31.817984 0 0 0 -2.943035,0.34119 31.206852,31.817984 0 0 0 -2.94327,0.97771 31.206852,31.817984 0 0 0 -2.94327,0.98448 31.206852,31.817984 0 0 0 -2.943034,1.31197 31.206852,31.817984 0 0 0 -2.943269,1.63935 31.206852,31.817984 0 0 0 -2.289564,1.96214 31.206852,31.817984 0 0 0 -2.289605,1.9622 31.206852,31.817984 0 0 0 -2.289608,2.28959 31.206852,31.817984 0 0 0 -1.962153,2.61628 31.206852,31.817984 0 0 0 -1.639347,2.61608 31.206852,31.817984 0 0 0 -1.311935,2.94328 31.206852,31.817984 0 0 0 -0.977669,2.94301 31.206852,31.817984 0 0 0 -0.650217,2.94328 31.206852,31.817984 0 0 0 -0.341208,2.61612 103.28461,107.15476 0 0 0 51.138384,27.90318 z"
       id="path859"
       inkscape:connector-curvature="0"
       inkscape:export-xdpi="96"
       inkscape:export-ydpi="96" />
    <path
       style="opacity:0.98000004;fill:#03dcd5;fill-opacity:1;stroke:none;stroke-width:182.93214417;stroke-miterlimit:4;stroke-dasharray:none;stroke-opacity:1"
       d="m 167.99204,249.91072 a 17.314766,17.448572 0 0 0 0.34118,-0.98452 17.314766,17.448572 0 0 0 0.34123,-1.63933 17.314766,17.448572 0 0 0 0.34325,-1.63706 17.314766,17.448572 0 0 0 0,-1.96218 17.314766,17.448572 0 0 0 0,-1.31198 17.314766,17.448572 0 0 0 -0.20605,-1.63932 17.314766,17.448572 0 0 0 -0.34121,-1.96215 17.314766,17.448572 0 0 0 -0.65021,-1.63937 17.314766,17.448572 0 0 0 -0.65486,-1.31191 17.314766,17.448572 0 0 0 -0.97762,-1.63712 17.314766,17.448572 0 0 0 -0.98456,-1.31192 17.314766,17.448572 0 0 0 -0.97764,-1.31188 17.314766,17.448572 0 0 0 -1.31193,-1.31197 17.314766,17.448572 0 0 0 -1.31194,-0.97762 17.314766,17.448572 0 0 0 -1.6394,-0.9777 17.314766,17.448572 0 0 0 -1.3119,-0.65024 17.314766,17.448572 0 0 0 -1.96215,-0.65476 17.314766,17.448572 0 0 0 -1.63707,-0.34124 17.314766,17.448572 0 0 0 -1.63931,-0.34119 17.314766,17.448572 0 0 0 -1.96452,0 17.314766,17.448572 0 0 0 -1.31192,0 17.314766,17.448572 0 0 0 -1.96445,0.20625 17.314766,17.448572 0 0 0 -1.63702,0.34121 17.314766,17.448572 0 0 0 -1.63939,0.65479 17.314766,17.448572 0 0 0 -1.63702,0.65023 17.314766,17.448572 0 0 0 -1.31197,0.98452 17.314766,17.448572 0 0 0 -1.31193,0.97765 17.314766,17.448572 0 0 0 -1.31191,1.31194 17.314766,17.448572 0 0 0 -1.31195,1.31196 17.314766,17.448572 0 0 0 -0.98451,1.31191 17.314766,17.448572 0 0 0 -0.65486,1.31195 17.314766,17.448572 0 0 0 -0.65022,1.63935 17.314766,17.448572 0 0 0 -0.65025,1.63935 17.314766,17.448572 0 0 0 -0.34117,1.63935 17.314766,17.448572 0 0 0 -0.34121,1.96215 17.314766,17.448572 0 0 0 0,1.63936 17.314766,17.448572 0 0 0 0,1.31192 17.314766,17.448572 0 0 0 0.24508,1.96443 17.314766,17.448572 0 0 0 0.34122,1.63938 17.314766,17.448572 0 0 0 0.6548,1.63707 17.314766,17.448572 0 0 0 0.65022,1.63935 17.314766,17.448572 0 0 0 0.97767,1.31193 17.314766,17.448572 0 0 0 0.98451,1.3119 17.314766,17.448572 0 0 0 0.97763,1.31197 17.314766,17.448572 0 0 0 1.31198,1.31194 17.314766,17.448572 0 0 0 1.31191,0.97763 17.314766,17.448572 0 0 0 1.63935,0.98452 17.314766,17.448572 0 0 0 1.63934,0.65484 17.314766,17.448572 0 0 0 1.63935,0.65481 17.314766,17.448572 0 0 0 1.63934,0.34119 17.314766,17.448572 0 0 0 1.31195,0.34121 103.28461,107.15476 0 0 0 18.12258,-11.48204 z"
       id="path863"
       inkscape:connector-curvature="0"
       inkscape:export-xdpi="96"
       inkscape:export-ydpi="96" />
    <path
       style="opacity:0.98000004;fill:#03d1dc;fill-opacity:1;stroke:none;stroke-width:182.93214417;stroke-miterlimit:4;stroke-dasharray:none;stroke-opacity:1"
       d="m 195.17197,110.11718 a 29.193503,28.738828 0 0 0 -0.18313,0.34116 29.193503,28.738828 0 0 0 -1.31193,2.61607 29.193503,28.738828 0 0 0 -0.97769,2.61631 29.193503,28.738828 0 0 0 -0.65022,2.6161 29.193503,28.738828 0 0 0 -0.34119,2.94325 29.193503,28.738828 0 0 0 -0.18311,2.94304 29.193503,28.738828 0 0 0 0,1.96218 29.193503,28.738828 0 0 0 0.34121,2.94324 29.193503,28.738828 0 0 0 0.65022,2.94329 29.193503,28.738828 0 0 0 0.98455,2.61608 29.193503,28.738828 0 0 0 1.3119,2.61609 29.193503,28.738828 0 0 0 1.31196,2.61632 29.193503,28.738828 0 0 0 1.63703,2.2896 29.193503,28.738828 0 0 0 1.96221,2.28956 29.193503,28.738828 0 0 0 2.2896,1.96214 29.193503,28.738828 0 0 0 2.28956,1.96219 29.193503,28.738828 0 0 0 2.28959,1.31197 29.193503,28.738828 0 0 0 1.96218,0.97762 103.28461,107.15476 0 0 0 -13.28077,-40.23192 z"
       id="path866"
       inkscape:connector-curvature="0"
       inkscape:export-xdpi="96"
       inkscape:export-ydpi="96" />
    <path
       style="opacity:0.98000004;fill:#00ff43;fill-opacity:1;stroke:none;stroke-width:182.93214417;stroke-miterlimit:4;stroke-dasharray:none;stroke-opacity:1"
       d="m 6.3207508,137.21216 a 15.704092,16.011632 0 0 0 1.3119344,0.20626 15.704092,16.011632 0 0 0 1.639347,0 15.704092,16.011632 0 0 0 1.3119348,0 15.704092,16.011632 0 0 0 1.311932,-0.20626 15.704092,16.011632 0 0 0 1.639347,-0.34117 15.704092,16.011632 0 0 0 1.305078,-0.34117 15.704092,16.011632 0 0 0 1.311938,-0.65025 15.704092,16.011632 0 0 0 1.311934,-0.97764 15.704092,16.011632 0 0 0 1.31194,-0.98452 15.704092,16.011632 0 0 0 1.311933,-0.97765 15.704092,16.011632 0 0 0 1.311934,-1.31195 15.704092,16.011632 0 0 0 0.654823,-1.31193 15.704092,16.011632 0 0 0 0.650216,-1.31191 15.704092,16.011632 0 0 0 0.650263,-1.31197 15.704092,16.011632 0 0 0 0.650218,-1.31191 15.704092,16.011632 0 0 0 0.183119,-1.31194 15.704092,16.011632 0 0 0 0.341206,-1.63935 15.704092,16.011632 0 0 0 0,-1.63704 15.704092,16.011632 0 0 0 0,-0.98453 15.704092,16.011632 0 0 0 -0.183121,-1.63934 15.704092,16.011632 0 0 0 -0.341204,-1.63937 15.704092,16.011632 0 0 0 -0.341207,-1.31191 15.704092,16.011632 0 0 0 -0.654818,-1.31195 15.704092,16.011632 0 0 0 -0.650262,-1.31193 15.704092,16.011632 0 0 0 -0.977625,-1.31194 15.704092,16.011632 0 0 0 -0.984526,-1.31192 15.704092,16.011632 0 0 0 -1.311938,-1.31195 15.704092,16.011632 0 0 0 -0.977669,-0.97764 103.28461,107.15476 0 0 0 -12.0704899,28.95 z"
       id="path877"
       inkscape:connector-curvature="0"
       inkscape:export-xdpi="96"
       inkscape:export-ydpi="96" />
    <path
       style="opacity:0.98000004;fill:#00ff21;fill-opacity:1;stroke:none;stroke-width:182.93214417;stroke-miterlimit:4;stroke-dasharray:none;stroke-opacity:1"
       d="m 203.8307,147.88621 a 10.872066,11.495531 0 0 0 -0.65026,0.65025 10.872066,11.495531 0 0 0 -0.34117,0.97763 10.872066,11.495531 0 0 0 -0.65487,0.98457 10.872066,11.495531 0 0 0 -0.34119,1.3119 10.872066,11.495531 0 0 0 -0.18312,0.97769 10.872066,11.495531 0 0 0 -0.20603,0.97761 10.872066,11.495531 0 0 0 0,1.31194 10.872066,11.495531 0 0 0 0,0.97767 10.872066,11.495531 0 0 0 0.20603,1.31194 10.872066,11.495531 0 0 0 0.18312,0.97769 10.872066,11.495531 0 0 0 0.34119,0.97761 10.872066,11.495531 0 0 0 0.34122,0.9845 10.872066,11.495531 0 0 0 0.65027,0.97772 10.872066,11.495531 0 0 0 0.65023,0.9845 10.872066,11.495531 0 0 0 0.65481,0.97761 10.872066,11.495531 0 0 0 0.65484,0.9777 10.872066,11.495531 0 0 0 0.97766,0.65477 10.872066,11.495531 0 0 0 0.65482,0.6503 10.872066,11.495531 0 0 0 0.97765,0.65022 10.872066,11.495531 0 0 0 0.98453,0.34327 10.872066,11.495531 0 0 0 0.34122,0 103.28461,107.15476 0 0 0 0,-1.96448 103.28461,107.15476 0 0 0 -0.97764,-13.96784 29.193503,28.738828 0 0 1 -1.96219,-0.97767 29.193503,28.738828 0 0 1 -2.28958,-1.31195 29.193503,28.738828 0 0 1 -0.18313,-0.20603 z"
       id="path880"
       inkscape:connector-curvature="0"
       inkscape:export-xdpi="96"
       inkscape:export-ydpi="96" />
    <path
       style="opacity:0.98000004;fill:#00ff27;fill-opacity:1;stroke:none;stroke-width:182.93214417;stroke-miterlimit:4;stroke-dasharray:none;stroke-opacity:1"
       d="m 123.49708,269.82236 a 25.569478,25.249112 0 0 0 0.20606,-0.20626 25.569478,25.249112 0 0 0 1.31194,-2.28961 25.569478,25.249112 0 0 0 0.6548,-2.61627 25.569478,25.249112 0 0 0 0.65023,-2.28961 25.569478,25.249112 0 0 0 0.34118,-2.61607 25.569478,25.249112 0 0 0 0.24512,-2.6161 25.569478,25.249112 0 0 0 0,-1.96215 25.569478,25.249112 0 0 0 -0.34121,-2.61612 25.569478,25.249112 0 0 0 -0.65027,-2.61626 25.569478,25.249112 0 0 0 -0.65021,-2.28963 25.569478,25.249112 0 0 0 -0.98453,-2.61604 25.569478,25.249112 0 0 0 -1.31193,-1.96222 25.569478,25.249112 0 0 0 -1.63706,-1.96211 25.569478,25.249112 0 0 0 -1.63933,-1.96223 25.569478,25.249112 0 0 0 -1.96219,-1.63702 25.569478,25.249112 0 0 0 -1.96216,-1.31197 25.569478,25.249112 0 0 0 -2.28963,-1.31193 25.569478,25.249112 0 0 0 -2.28958,-0.97766 25.569478,25.249112 0 0 0 -2.28954,-0.98455 25.569478,25.249112 0 0 0 -2.61609,-0.65023 25.569478,25.249112 0 0 0 -2.28959,-0.34119 25.569478,25.249112 0 0 0 -2.61635,-0.20604 25.569478,25.249112 0 0 0 -1.962129,0 25.569478,25.249112 0 0 0 -2.616325,0.34122 25.569478,25.249112 0 0 0 -2.289634,0.65023 31.206852,31.817984 0 0 1 0.183127,0.34117 31.206852,31.817984 0 0 1 0.977665,2.94333 31.206852,31.817984 0 0 1 0.65021,2.94328 31.206852,31.817984 0 0 1 0.341206,2.94305 31.206852,31.817984 0 0 1 0,2.28958 31.206852,31.817984 0 0 1 -0.18311,3.30293 31.206852,31.817984 0 0 1 -0.341239,2.94327 31.206852,31.817984 0 0 1 -0.650211,2.94323 31.206852,31.817984 0 0 1 -0.977681,2.94308 31.206852,31.817984 0 0 1 -1.311901,2.94324 31.206852,31.817984 0 0 1 -1.639372,2.94306 31.206852,31.817984 0 0 1 -1.962162,2.61636 31.206852,31.817984 0 0 1 -2.289599,2.28952 31.206852,31.817984 0 0 1 -1.639339,1.31195 103.28461,107.15476 0 0 0 20.149974,1.96219 103.28461,107.15476 0 0 0 17.30495,-1.63934 z"
       id="path883"
       inkscape:connector-curvature="0"
       inkscape:export-xdpi="96"
       inkscape:export-ydpi="96" />
    <path
       style="opacity:0.98000004;fill:#0071ff;fill-opacity:1;stroke:none;stroke-width:182.93214417;stroke-miterlimit:4;stroke-dasharray:none;stroke-opacity:1"
       d="m 81.619815,93.89887 a 23.958804,24.222723 0 0 1 -0.183127,0.977655 23.958804,24.222723 0 0 1 -1.311902,2.616315 23.958804,24.222723 0 0 1 -0.977697,1.962176 23.958804,24.222723 0 0 1 -1.637031,1.962174 23.958804,24.222723 0 0 1 -1.639372,1.96217 23.958804,24.222723 0 0 1 -1.962173,1.31193 23.958804,24.222723 0 0 1 -1.962181,1.63936 23.958804,24.222723 0 0 1 -1.964435,1.31194 23.958804,24.222723 0 0 1 -2.289581,1.31193 23.958804,24.222723 0 0 1 -2.289623,0.98452 23.958804,24.222723 0 0 1 -2.289564,0.34116 23.958804,24.222723 0 0 1 -2.289602,0.20613 23.958804,24.222723 0 0 1 -1.637053,0 23.958804,24.222723 0 0 1 -2.289602,-0.20613 23.958804,24.222723 0 0 1 -2.289565,-0.20615 23.958804,24.222723 0 0 1 -2.289601,-0.65025 23.958804,24.222723 0 0 1 -2.289569,-0.97764 23.958804,24.222723 0 0 1 -2.289602,-1.31194 23.958804,24.222723 0 0 1 -1.962156,-1.63935 23.958804,24.222723 0 0 1 -1.962199,-1.63933 23.958804,24.222723 0 0 1 -1.311935,-1.31194 23.958804,24.222723 0 0 1 -1.639343,-1.96218 23.958804,24.222723 0 0 1 -1.637048,-1.962173 23.958804,24.222723 0 0 1 -1.311934,-1.962179 23.958804,24.222723 0 0 1 -0.984526,-2.616082 23.958804,24.222723 0 0 1 -0.650262,-2.616082 23.958804,24.222723 0 0 1 -0.341206,-2.289589 23.958804,24.222723 0 0 1 -0.341203,-2.616314 103.28461,107.15476 0 0 0 -16.715806,21.557159 15.704092,16.011632 0 0 1 0.984523,0.98453 15.704092,16.011632 0 0 1 1.311938,1.30505 15.704092,16.011632 0 0 1 0.977629,1.31196 15.704092,16.011632 0 0 1 0.977667,1.31191 15.704092,16.011632 0 0 1 0.650224,1.31194 15.704092,16.011632 0 0 1 0.654813,1.31192 15.704092,16.011632 0 0 1 0.341209,1.31195 15.704092,16.011632 0 0 1 0.341202,1.63705 15.704092,16.011632 0 0 1 0.183122,1.63934 15.704092,16.011632 0 0 1 0,0.98453 15.704092,16.011632 0 0 1 0,1.63934 15.704092,16.011632 0 0 1 -0.341207,1.63705 15.704092,16.011632 0 0 1 -0.183119,1.31195 15.704092,16.011632 0 0 1 -0.65482,1.31192 15.704092,16.011632 0 0 1 -0.650262,1.31194 15.704092,16.011632 0 0 1 -0.650223,1.31193 15.704092,16.011632 0 0 1 -0.650254,1.31195 15.704092,16.011632 0 0 1 -1.311937,1.31192 15.704092,16.011632 0 0 1 -1.311937,0.97767 15.704092,16.011632 0 0 1 -1.311936,0.98451 15.704092,16.011632 0 0 1 -1.311933,0.97767 15.704092,16.011632 0 0 1 -1.311935,0.65023 15.704092,16.011632 0 0 1 -1.311896,0.34117 15.704092,16.011632 0 0 1 -1.637088,0.34116 15.704092,16.011632 0 0 1 -1.305038,0.20603 15.704092,16.011632 0 0 1 -1.311933,0 15.704092,16.011632 0 0 1 -1.6370884,0 15.704092,16.011632 0 0 1 -1.3119334,-0.20603 103.28461,107.15476 0 0 0 -3.4345938,27.0856 103.28461,107.15476 0 0 0 1.311935,16.22496 10.872066,11.290252 0 0 1 0.9776689,-0.20602 10.872066,11.290252 0 0 1 0.9844892,-0.20628 10.872066,11.290252 0 0 1 0.6502554,0 10.872066,11.290252 0 0 1 0.9776721,0 10.872066,11.290252 0 0 1 1.3119364,0.20628 10.872066,11.290252 0 0 1 0.9776276,0.34117 10.872066,11.290252 0 0 1 0.984525,0.20606 10.872066,11.290252 0 0 1 0.977673,0.65022 10.872066,11.290252 0 0 1 0.650217,0.65025 10.872066,11.290252 0 0 1 0.977671,0.65021 10.872066,11.290252 0 0 1 0.650261,0.9777 10.872066,11.290252 0 0 1 0.65022,0.98453 10.872066,11.290252 0 0 1 0.650258,0.97769 10.872066,11.290252 0 0 1 0.650221,0.9776 10.872066,11.290252 0 0 1 0.34326,0.98453 10.872066,11.290252 0 0 1 0.341204,0.97766 10.872066,11.290252 0 0 1 0.206126,1.31194 10.872066,11.290252 0 0 1 0.183123,0.98453 10.872066,11.290252 0 0 1 0,0.97761 10.872066,11.290252 0 0 1 0,1.31196 10.872066,11.290252 0 0 1 -0.183123,0.97764 10.872066,11.290252 0 0 1 -0.206126,0.98456 10.872066,11.290252 0 0 1 -0.341204,0.97762 10.872066,11.290252 0 0 1 -0.650263,0.97766 10.872066,11.290252 0 0 1 -0.341205,0.98452 10.872066,11.290252 0 0 1 -0.650222,0.97764 10.872066,11.290252 0 0 1 -0.65026,0.98451 10.872066,11.290252 0 0 1 -0.650219,0.65029 10.872066,11.290252 0 0 1 -0.977666,0.65023 10.872066,11.290252 0 0 1 -0.977629,0.65021 10.872066,11.290252 0 0 1 -0.650261,0.34121 10.872066,11.290252 0 0 1 -1.311938,0.34121 103.28461,107.15476 0 0 0 25.155235,39.20855 31.206852,31.817984 0 0 1 0.341206,-2.61612 31.206852,31.817984 0 0 1 0.650218,-2.94325 31.206852,31.817984 0 0 1 0.984526,-2.94306 31.206852,31.817984 0 0 1 1.311938,-2.94323 31.206852,31.817984 0 0 1 1.639342,-2.61608 31.206852,31.817984 0 0 1 1.962198,-2.61633 31.206852,31.817984 0 0 1 2.289565,-2.28956 31.206852,31.817984 0 0 1 2.289605,-1.96219 31.206852,31.817984 0 0 1 2.289605,-1.96218 31.206852,31.817984 0 0 1 2.943238,-1.63931 31.206852,31.817984 0 0 1 2.943271,-1.31195 31.206852,31.817984 0 0 1 2.943015,-0.97767 31.206852,31.817984 0 0 1 2.94327,-0.97761 31.206852,31.817984 0 0 1 2.943271,-0.34121 31.206852,31.817984 0 0 1 2.289642,0 31.206852,31.817984 0 0 1 2.942995,0.20625 31.206852,31.817984 0 0 1 3.27434,0.34119 31.206852,31.817984 0 0 1 2.943039,0.9845 31.206852,31.817984 0 0 1 2.943277,0.9777 31.206852,31.817984 0 0 1 2.943278,1.31193 31.206852,31.817984 0 0 1 2.943024,1.63936 31.206852,31.817984 0 0 1 2.289616,1.96214 31.206852,31.817984 0 0 1 2.289548,1.9622 31.206852,31.817984 0 0 1 1.962214,2.61629 31.206852,31.817984 0 0 1 1.962128,2.61607 31.206852,31.817984 0 0 1 1.639339,2.94329 31.206852,31.817984 0 0 1 0.97768,2.61607 25.569478,25.249112 0 0 1 2.289585,-0.65021 25.569478,25.249112 0 0 1 2.616304,-0.34369 25.569478,25.249112 0 0 1 1.96223,0 25.569478,25.249112 0 0 1 2.61628,0.20627 25.569478,25.249112 0 0 1 2.28957,0.3412 25.569478,25.249112 0 0 1 2.61609,0.65025 25.569478,25.249112 0 0 1 2.28959,0.98457 25.569478,25.249112 0 0 1 2.28961,0.97761 25.569478,25.249112 0 0 1 2.28955,1.31193 25.569478,25.249112 0 0 1 1.96221,1.31193 25.569478,25.249112 0 0 1 1.96213,1.63707 25.569478,25.249112 0 0 1 1.63936,1.96449 25.569478,25.249112 0 0 1 1.63936,1.96213 25.569478,25.249112 0 0 1 1.31192,1.96218 25.569478,25.249112 0 0 1 0.97767,2.61611 25.569478,25.249112 0 0 1 0.65022,2.28957 25.569478,25.249112 0 0 1 0.65022,2.61608 25.569478,25.249112 0 0 1 0.34125,2.61635 25.569478,25.249112 0 0 1 0,1.96218 25.569478,25.249112 0 0 1 -0.20627,2.61607 25.569478,25.249112 0 0 1 -0.34119,2.61608 25.569478,25.249112 0 0 1 -0.65028,2.2896 25.569478,25.249112 0 0 1 -0.65025,2.61631 25.569478,25.249112 0 0 1 -1.31193,2.28956 25.569478,25.249112 0 0 1 -0.20627,0.20602 103.28461,107.15476 0 0 0 26.36599,-8.40714 17.314766,17.448572 0 0 1 -1.31195,-0.3412 17.314766,17.448572 0 0 1 -1.63934,-0.34122 17.314766,17.448572 0 0 1 -1.63702,-0.65021 17.314766,17.448572 0 0 1 -1.63706,-0.65486 17.314766,17.448572 0 0 1 -1.63707,-0.97763 17.314766,17.448572 0 0 1 -1.3119,-0.97766 17.314766,17.448572 0 0 1 -1.31194,-1.31195 17.314766,17.448572 0 0 1 -0.98454,-1.31195 17.314766,17.448572 0 0 1 -0.97766,-1.31191 17.314766,17.448572 0 0 1 -0.97763,-1.31194 17.314766,17.448572 0 0 1 -0.65027,-1.63936 17.314766,17.448572 0 0 1 -0.65482,-1.63934 17.314766,17.448572 0 0 1 -0.34324,-1.63932 17.314766,17.448572 0 0 1 -0.20604,-1.96218 17.314766,17.448572 0 0 1 0,-1.31193 17.314766,17.448572 0 0 1 0,-1.63934 17.314766,17.448572 0 0 1 0.34116,-1.96446 17.314766,17.448572 0 0 1 0.34121,-1.63934 17.314766,17.448572 0 0 1 0.65027,-1.63708 17.314766,17.448572 0 0 1 0.65024,-1.63936 17.314766,17.448572 0 0 1 0.65025,-1.31192 17.314766,17.448572 0 0 1 0.97764,-1.31192 17.314766,17.448572 0 0 1 1.3119,-1.31198 17.314766,17.448572 0 0 1 1.31196,-1.31191 17.314766,17.448572 0 0 1 1.31193,-0.98447 17.314766,17.448572 0 0 1 1.31194,-0.97769 17.314766,17.448572 0 0 1 1.63709,-0.65481 17.314766,17.448572 0 0 1 1.63931,-0.65026 17.314766,17.448572 0 0 1 1.6394,-0.34125 17.314766,17.448572 0 0 1 1.96212,-0.20601 17.314766,17.448572 0 0 1 1.31194,0 17.314766,17.448572 0 0 1 1.96444,0 17.314766,17.448572 0 0 1 1.63936,0.34116 17.314766,17.448572 0 0 1 1.63707,0.34124 17.314766,17.448572 0 0 1 1.96216,0.65026 17.314766,17.448572 0 0 1 1.31196,0.65023 17.314766,17.448572 0 0 1 1.63932,0.98453 17.314766,17.448572 0 0 1 1.31196,0.97764 17.314766,17.448572 0 0 1 1.31193,1.31198 17.314766,17.448572 0 0 1 0.97766,1.31191 17.314766,17.448572 0 0 1 0.97762,1.31193 17.314766,17.448572 0 0 1 0.98453,1.63707 17.314766,17.448572 0 0 1 0.65025,1.31192 17.314766,17.448572 0 0 1 0.65024,1.63935 17.314766,17.448572 0 0 1 0.34121,1.9622 17.314766,17.448572 0 0 1 0.20602,1.63933 17.314766,17.448572 0 0 1 0,1.31193 17.314766,17.448572 0 0 1 0,1.96217 17.314766,17.448572 0 0 1 -0.34119,1.63704 17.314766,17.448572 0 0 1 -0.34123,1.63934 17.314766,17.448572 0 0 1 -0.34117,0.9777 103.28461,107.15476 0 0 0 41.4754,-83.75155 10.872066,11.495531 0 0 1 -0.3412,0 10.872066,11.495531 0 0 1 -0.97766,-0.34121 10.872066,11.495531 0 0 1 -0.97764,-0.65022 10.872066,11.495531 0 0 1 -0.65025,-0.65487 10.872066,11.495531 0 0 1 -0.98455,-0.65021 10.872066,11.495531 0 0 1 -0.65021,-0.9845 10.872066,11.495531 0 0 1 -0.65023,-0.97769 10.872066,11.495531 0 0 1 -0.65025,-0.98453 10.872066,11.495531 0 0 1 -0.65481,-0.9776 10.872066,11.495531 0 0 1 -0.34122,-0.9777 10.872066,11.495531 0 0 1 -0.3412,-0.98451 10.872066,11.495531 0 0 1 -0.18313,-0.97766 10.872066,11.495531 0 0 1 -0.24507,-1.3119 10.872066,11.495531 0 0 1 0,-0.98457 10.872066,11.495531 0 0 1 0,-1.3119 10.872066,11.495531 0 0 1 0.24507,-0.98452 10.872066,11.495531 0 0 1 0.18313,-0.97768 10.872066,11.495531 0 0 1 0.3412,-1.31194 10.872066,11.495531 0 0 1 0.65021,-0.98453 10.872066,11.495531 0 0 1 0.34122,-0.97765 10.872066,11.495531 0 0 1 0.65028,-0.65024 29.193503,28.738828 0 0 1 -1.9622,-1.63704 29.193503,28.738828 0 0 1 -2.28957,-1.96222 29.193503,28.738828 0 0 1 -1.96221,-2.28954 29.193503,28.738828 0 0 1 -1.63703,-2.28959 29.193503,28.738828 0 0 1 -1.31191,-2.61632 29.193503,28.738828 0 0 1 -1.31195,-2.61609 29.193503,28.738828 0 0 1 -0.97769,-2.61609 29.193503,28.738828 0 0 1 -0.65481,-2.94326 29.193503,28.738828 0 0 1 -0.34124,-2.94327 29.193503,28.738828 0 0 1 0,-1.96216 29.193503,28.738828 0 0 1 0.18314,-2.94326 29.193503,28.738828 0 0 1 0.34121,-2.94327 29.193503,28.738828 0 0 1 0.65025,-2.61607 29.193503,28.738828 0 0 1 0.98455,-2.61612 29.193503,28.738828 0 0 1 1.31192,-2.61629 29.193503,28.738828 0 0 1 0.18313,-0.34116 103.28461,107.15476 0 0 0 -88.98876,-52.963447 l 0.34326,-0.206081 a 103.28461,107.15476 0 0 0 -9.25704,0.654822 20.737455,20.117179 0 0 1 1.63704,1.311936 20.737455,20.117179 0 0 1 1.63933,1.31193 20.737455,20.117179 0 0 1 1.31196,1.311936 20.737455,20.117179 0 0 1 1.31191,1.639346 20.737455,20.117179 0 0 1 0.9777,1.962173 20.737455,20.117179 0 0 1 0.65481,1.962182 20.737455,20.117179 0 0 1 0.65021,1.962175 20.737455,20.117179 0 0 1 0.34119,1.964468 20.737455,20.117179 0 0 1 0.34122,1.962175 20.737455,20.117179 0 0 1 0,1.311938 20.737455,20.117179 0 0 1 -0.20603,1.962174 20.737455,20.117179 0 0 1 -0.20605,1.962175 20.737455,20.117179 0 0 1 -0.65482,1.96218 20.737455,20.117179 0 0 1 -0.65022,1.962174 20.737455,20.117179 0 0 1 -0.98455,1.962179 20.737455,20.117179 0 0 1 -0.97765,1.637058 20.737455,20.117179 0 0 1 -1.31193,1.637055 20.737455,20.117179 0 0 1 -1.31193,1.311932 20.737455,20.117179 0 0 1 -1.63708,1.311935 20.737455,20.117179 0 0 1 -1.639297,1.311931 20.737455,20.117179 0 0 1 -1.962218,0.984525 20.737455,20.117179 0 0 1 -1.962145,0.977654 20.737455,20.117179 0 0 1 -1.962213,0.654823 20.737455,20.117179 0 0 1 -2.289582,0.650243 20.737455,20.117179 0 0 1 -1.962179,0.206083 20.737455,20.117179 0 0 1 -1.311934,0 20.737455,20.117179 0 0 1 -1.962146,0 20.737455,20.117179 0 0 1 -1.962196,-0.341164 z"
       id="path886"
       inkscape:connector-curvature="0"
       inkscape:export-xdpi="96"
       inkscape:export-ydpi="96" />
    <path
       style="opacity:0.98000004;fill:#00ff0e;fill-opacity:1;stroke:none;stroke-width:182.93214417;stroke-miterlimit:4;stroke-dasharray:none;stroke-opacity:1"
       d="m 81.619815,93.89887 a 20.737455,20.117179 0 0 0 1.964469,0.341166 20.737455,20.117179 0 0 0 1.962212,0 20.737455,20.117179 0 0 0 1.311918,0 20.737455,20.117179 0 0 0 1.962163,-0.206082 20.737455,20.117179 0 0 0 2.289599,-0.650247 20.737455,20.117179 0 0 0 1.964451,-0.650238 20.737455,20.117179 0 0 0 1.962162,-0.977652 20.737455,20.117179 0 0 0 1.962197,-0.984528 20.737455,20.117179 0 0 0 1.639357,-1.311932 20.737455,20.117179 0 0 0 1.637027,-1.311938 20.737455,20.117179 0 0 0 1.30509,-1.31193 20.737455,20.117179 0 0 0 1.31194,-1.639345 20.737455,20.117179 0 0 0 0.98451,-1.637055 20.737455,20.117179 0 0 0 0.97763,-1.964469 20.737455,20.117179 0 0 0 0.65027,-1.962174 20.737455,20.117179 0 0 0 0.65025,-1.962178 20.737455,20.117179 0 0 0 0.24513,-1.962179 20.737455,20.117179 0 0 0 0.20602,-1.962175 20.737455,20.117179 0 0 0 0,-1.311937 20.737455,20.117179 0 0 0 -0.34365,-1.962176 20.737455,20.117179 0 0 0 -0.34121,-1.962177 20.737455,20.117179 0 0 0 -0.65028,-1.962179 20.737455,20.117179 0 0 0 -0.65481,-1.962176 20.737455,20.117179 0 0 0 -0.98453,-1.962174 20.737455,20.117179 0 0 0 -1.31193,-1.637059 20.737455,20.117179 0 0 0 -1.31196,-1.311931 20.737455,20.117179 0 0 0 -1.639303,-1.311937 20.737455,20.117179 0 0 0 -1.639349,-1.31193 103.28461,107.15476 0 0 0 -26.36596,6.150061 23.958804,24.222723 0 0 1 1.962179,1.311932 23.958804,24.222723 0 0 1 1.962182,1.639349 23.958804,24.222723 0 0 1 1.639303,1.311933 23.958804,24.222723 0 0 1 1.63939,1.96218 23.958804,24.222723 0 0 1 1.639319,1.962171 23.958804,24.222723 0 0 1 0.98455,2.289591 23.958804,24.222723 0 0 1 1.311918,1.962175 23.958804,24.222723 0 0 1 0.650211,2.616315 23.958804,24.222723 0 0 1 0.34124,2.289586 23.958804,24.222723 0 0 1 0.343242,2.616083 23.958804,24.222723 0 0 1 0,1.639343 23.958804,24.222723 0 0 1 -0.183127,2.289592 23.958804,24.222723 0 0 1 -0.206036,2.616082 23.958804,24.222723 0 0 1 -0.650279,2.289586 23.958804,24.222723 0 0 1 -0.65026,1.637057 z"
       id="path829"
       inkscape:connector-curvature="0"
       inkscape:export-xdpi="96"
       inkscape:export-ydpi="96" />
    <g
       id="g836"
       transform="matrix(389.60607,0,0,397.23588,-42414.253,-49430.895)"
       inkscape:export-xdpi="96"
       inkscape:export-ydpi="96">
      <path
         inkscape:connector-curvature="0"
         d="m 108.9134,124.88208 c -0.003,2.6e-4 -0.006,5.3e-4 -0.01,5.3e-4 -0.002,6e-5 -0.004,5e-5 -0.006,6e-5 -2.6e-4,0 -5.3e-4,0 -7.9e-4,0 -7.9e-4,0 -10e-4,-9e-5 -0.002,-5.3e-4 -0.001,-5.3e-4 -1.3e-4,-5.3e-4 -0.001,-5.3e-4 -10e-4,-10e-4 -0.002,-0.003 -0.003,-0.004 -7.9e-4,-0.001 -10e-4,-0.002 -0.002,-0.003 -0.001,-0.002 -0.002,-0.004 -0.002,-0.007 -7.9e-4,-0.003 -0.002,-0.006 -0.002,-0.009 -1.2e-4,-0.004 -2.7e-4,-0.008 1.7e-4,-0.0125 5.3e-4,-0.003 10e-4,-0.006 0.002,-0.008 7.9e-4,-0.003 0.002,-0.006 0.004,-0.009 0.002,-0.003 0.004,-0.006 0.005,-0.01 0.002,-0.004 0.005,-0.009 0.008,-0.0129 0.003,-0.004 0.005,-0.008 0.008,-0.0116 0.002,-0.004 0.005,-0.006 0.008,-0.01 0.003,-0.003 0.006,-0.006 0.009,-0.009 0.003,-0.003 0.006,-0.006 0.009,-0.009 0.003,-0.003 0.005,-0.005 0.008,-0.008 0.002,-0.002 0.004,-0.003 0.006,-0.005 5.3e-4,-2.6e-4 0.001,-7.9e-4 0.002,-10e-4 0.005,-0.003 0.009,-0.005 0.0139,-0.008 1.8e-4,-10e-5 8e-4,-2.6e-4 5.3e-4,-2e-4 -0.004,0.002 -0.0168,0.01 -0.0126,0.007 0.005,-0.003 0.009,-0.005 0.0138,-0.008 -5.3e-4,7.9e-4 0.002,-8e-4 0.001,-5.3e-4 -0.004,0.002 -0.0169,0.009 -0.0126,0.007 0.005,-0.003 0.01,-0.006 0.015,-0.008 -0.0325,0.0186 -8e-4,2.6e-4 0.001,-2.7e-4 0.005,-0.002 -0.0172,0.01 -0.0129,0.007 0.0186,-0.01 0.008,-0.008 0.0146,-0.008 7.9e-4,2.6e-4 5.3e-4,-2.7e-4 7.9e-4,-5.3e-4 2.3e-4,-1.2e-4 0.001,-2.3e-4 0.001,-2.6e-4 0.001,-1.8e-4 0.002,-3e-5 0.003,2.6e-4 8e-4,2.6e-4 0.002,8e-4 0.002,5.3e-4 8e-4,1e-5 0.001,10e-4 0.002,10e-4 5.3e-4,2.5e-4 7.9e-4,0.001 0.002,0.001 2.4e-4,3e-5 5.3e-4,-5e-5 7.9e-4,-4e-5 0.001,-1.8e-4 0.002,2.3e-4 0.002,7.9e-4 8e-4,2e-4 0.002,2.7e-4 0.002,2.7e-4 5.3e-4,-1.8e-4 0.002,2.6e-4 0.002,-10e-6 1.1e-4,-6e-5 1e-4,-2.3e-4 1.6e-4,-2.6e-4 0.005,-0.002 0.009,-0.004 -0.0114,0.007 -2.6e-4,1.7e-4 5.3e-4,-5.3e-4 7.9e-4,-7.9e-4 5.3e-4,-5.3e-4 10e-4,-8e-4 10e-4,-0.002 1.3e-4,-8e-4 -6e-5,-0.002 5.3e-4,-0.003 2.4e-4,-10e-4 10e-4,-0.002 0.002,-0.003 0.003,-0.005 0.0104,-0.006 0.0157,-0.009 5.3e-4,0.001 5.3e-4,0.002 2.6e-4,0.004 -8e-4,0.002 -10e-4,0.003 -10e-4,0.005 -4e-5,0.002 -3e-5,0.004 -3e-5,0.006 1e-5,0.003 2e-5,0.005 1e-5,0.008 0,0.003 0,0.006 -2e-5,0.009 2e-5,0.004 -2e-5,0.007 -6e-5,0.011 -4e-5,0.005 -2e-5,0.0103 1e-5,0.0155 0,0.005 0,0.009 0,0.0141 1e-5,0.004 2e-5,0.008 2e-5,0.0123 -2e-5,0.005 1e-5,0.009 -6e-5,0.0136 -5e-5,0.007 -7e-5,0.0141 -7e-5,0.0211 1.9e-4,0.008 -5.2e-4,0.0151 -0.002,0.0225 -0.001,0.007 -0.002,0.0144 -0.003,0.0216 -2.6e-4,0.005 -7.9e-4,0.0105 -0.002,0.0157 -5.3e-4,0.005 -0.001,0.009 -0.002,0.0137 -5.3e-4,0.003 -10e-4,0.006 -0.002,0.01 -5.3e-4,0.002 -0.001,0.004 -0.001,0.007 -5.3e-4,0.002 -5.3e-4,0.004 -8e-4,0.006 -5.3e-4,0.002 -7.9e-4,0.003 -7.9e-4,0.005 -4e-5,10e-4 -5.3e-4,0.003 -7.9e-4,0.004 -2.7e-4,5.3e-4 -2.7e-4,0.001 -2.7e-4,0.002 0,0 -0.0139,0.007 -0.0139,0.007 v 0 c 2.6e-4,-5.3e-4 7e-5,-10e-4 2.1e-4,-0.002 8e-4,-5.3e-4 8e-4,-0.002 0.001,-0.003 1e-5,-0.002 1e-5,-0.004 5.3e-4,-0.005 1e-4,-5.3e-4 2.6e-4,-0.001 2.6e-4,-0.002 1.3e-4,-10e-4 -1.4e-4,-0.003 5.3e-4,-0.004 2.6e-4,-0.002 8e-4,-0.004 0.001,-0.007 5.3e-4,-0.003 0.001,-0.006 0.002,-0.01 0.001,-0.005 0.002,-0.009 0.002,-0.0137 8e-4,-0.005 10e-4,-0.0104 0.002,-0.0156 8e-4,-0.007 0.002,-0.0145 0.003,-0.0217 0.001,-0.007 0.002,-0.0148 0.002,-0.0223 0,-0.007 -2e-5,-0.0141 -7e-5,-0.0211 -7e-5,-0.005 -4e-5,-0.009 -6e-5,-0.0135 0,-0.004 1e-5,-0.008 2e-5,-0.0123 0,-0.005 0,-0.009 0,-0.0141 3e-5,-0.005 5e-5,-0.0103 1e-5,-0.0155 -4e-5,-0.004 -8e-5,-0.007 -6e-5,-0.0109 -2e-5,-0.003 -2e-5,-0.006 -2e-5,-0.009 -10e-6,-0.003 -10e-6,-0.005 -2e-5,-0.008 -2e-5,-0.002 -6e-5,-0.004 -4e-5,-0.006 3e-5,-0.002 -9e-5,-0.004 7.9e-4,-0.006 2.7e-4,-7.9e-4 8e-4,-0.002 5.3e-4,-0.002 0.0237,-0.0129 0.0156,-0.01 0.0116,-0.006 -2.6e-4,5.2e-4 -2.6e-4,0.001 -7.9e-4,0.002 -5.3e-4,5.3e-4 -2.6e-4,1.9e-4 -7.9e-4,5.3e-4 -8e-5,9e-5 -1.2e-4,2.1e-4 -1.8e-4,2.7e-4 -1.9e-4,7.9e-4 -2.6e-4,2.6e-4 -5.3e-4,10e-4 -1.1e-4,2.7e-4 1.1e-4,8e-4 0,0.001 -5e-5,0.001 -1.3e-4,0.002 -8e-4,0.003 -1.6e-4,9e-5 -2.6e-4,1.9e-4 -5.3e-4,2.6e-4 -1e-4,1.2e-4 -1.6e-4,2.7e-4 -2.6e-4,2.7e-4 -0.006,0.003 -0.01,0.007 -0.015,0.009 -0.001,-2.1e-4 -0.002,-6e-5 -0.003,-1.8e-4 -8e-4,-1.3e-4 -0.002,-2.7e-4 -0.003,-8e-4 -2.6e-4,-9e-5 -5.3e-4,-2.6e-4 -7.9e-4,-2.6e-4 -6e-5,-1e-5 -4e-5,1.2e-4 -9e-5,1.4e-4 -2.6e-4,9e-5 -7.9e-4,-1.2e-4 -0.001,-1.7e-4 -8e-4,-2.5e-4 -0.002,-7.9e-4 -0.002,-0.001 -8e-4,-5.3e-4 -0.001,-0.001 -0.002,-7.9e-4 -7.9e-4,-2.5e-4 -0.002,-5.3e-4 -0.002,-8e-4 -0.001,-1.9e-4 -0.002,-3e-5 -0.003,2.7e-4 -7.9e-4,5.3e-4 -0.001,5.3e-4 -0.002,5.3e-4 -2.4e-4,5e-5 -7.9e-4,2.6e-4 -7.9e-4,2.6e-4 0.004,-0.002 0.0173,-0.01 0.0129,-0.007 -0.005,0.002 -0.009,0.005 -0.0137,0.008 -0.0106,0.006 0.0469,-0.0269 -7.9e-4,5.3e-4 -7.9e-4,5.3e-4 -2.7e-4,2.3e-4 -0.001,5.3e-4 0.004,-0.002 0.0168,-0.01 0.0126,-0.007 -0.008,0.004 -0.01,0.006 -0.0151,0.008 0.0227,-0.0131 0.0109,-0.006 -0.001,5.3e-4 -0.004,0.002 0.008,-0.005 0.0119,-0.007 5.3e-4,-2.6e-4 -0.002,0.002 -10e-4,0.001 -0.002,10e-4 -0.004,0.003 -0.006,0.005 -0.001,0.001 -0.003,0.002 -0.004,0.004 -0.001,10e-4 -0.002,0.002 -0.003,0.003 -5.3e-4,5.3e-4 -8e-4,7.9e-4 -0.001,10e-4 -0.003,0.003 -0.006,0.006 -0.009,0.009 -0.005,0.005 0.002,-0.002 -0.003,0.003 -0.001,0.002 -0.003,0.003 -0.005,0.004 -5.3e-4,5.3e-4 -10e-4,0.001 -0.002,0.002 -0.003,0.003 -0.006,0.006 -0.009,0.009 -0.003,0.004 -0.006,0.008 -0.008,0.0116 -0.003,0.004 -0.005,0.008 -0.008,0.0126 -7.9e-4,0.002 -0.002,0.004 -0.002,0.005 -7.9e-4,0.002 -0.002,0.003 -0.003,0.004 -0.001,0.003 -0.003,0.006 -0.004,0.009 -2.3e-4,8e-4 -5.3e-4,0.002 -7.9e-4,0.002 -5.3e-4,0.002 -7.9e-4,0.004 -0.001,0.006 -8e-4,0.004 -5.3e-4,0.008 -2.7e-4,0.0122 2.6e-4,0.003 0.001,0.006 0.002,0.009 5.3e-4,0.002 10e-4,0.004 0.002,0.006 7.9e-4,0.001 0.001,0.002 0.002,0.003 7.9e-4,0.001 0.001,0.002 0.002,0.003 10e-4,5.3e-4 0.002,8e-4 0.003,5.3e-4 0.002,2e-5 0.004,10e-6 0.006,-4e-5 0.003,-1.1e-4 0.006,-2e-4 0.009,-7.9e-4 0,0 -0.0122,0.009 -0.0122,0.009 z"
         id="path819"
         style="opacity:0.98000004;fill:#00ffff;fill-opacity:1;stroke:none;stroke-width:0.46499997;stroke-miterlimit:4;stroke-dasharray:none;stroke-opacity:1" />
      <path
         inkscape:connector-curvature="0"
         d="m 108.98445,124.81935 c 0.003,-0.003 0.005,-0.006 0.007,-0.009 0.002,-0.002 0.003,-0.004 0.005,-0.007 0.002,-0.002 0.003,-0.004 0.004,-0.006 8e-4,-0.002 0.003,-0.003 0.004,-0.005 10e-4,-0.002 0.002,-0.003 0.004,-0.004 0.001,-0.002 0.003,-0.003 0.004,-0.005 0.002,-0.002 0.004,-0.004 0.007,-0.006 0.002,-0.002 0.004,-0.003 0.007,-0.005 0.002,-0.002 0.005,-0.004 0.007,-0.005 5.3e-4,-2.7e-4 7.9e-4,-5.3e-4 0.001,-8e-4 0.005,-0.003 0.0139,-0.008 0.0205,-0.0112 10e-4,-7.9e-4 0.002,-0.001 0.003,-0.001 10e-4,-5.3e-4 0.002,-7.9e-4 0.003,-0.001 7.9e-4,-1.5e-4 10e-4,-7.9e-4 0.002,-10e-4 5.2e-4,-2e-4 0.001,-1.4e-4 0.002,-2.1e-4 0.001,-2e-5 0.002,1e-5 0.003,3e-5 0.001,-2.1e-4 0.001,5.3e-4 0.002,7.9e-4 1.4e-4,8e-5 2.6e-4,6e-5 5.3e-4,9e-5 1.9e-4,1.2e-4 2.6e-4,2.3e-4 5.3e-4,2.7e-4 0.002,0.001 0.003,0.003 0.004,0.004 0.002,0.002 0.003,0.005 0.004,0.008 0.002,0.005 0.004,0.011 0.005,0.0167 10e-4,0.009 0.003,0.0177 0.004,0.0266 5.3e-4,0.008 5.3e-4,0.0167 5.3e-4,0.0251 0,0.008 -6e-5,0.0168 -4e-5,0.0251 2e-5,0.008 1e-4,0.0152 -2.5e-4,0.0227 -1.2e-4,0.004 -5.3e-4,0.008 -5.3e-4,0.0119 -0.005,0.002 -0.009,0.004 -0.0138,0.006 -5.3e-4,1.4e-4 -5e-5,-0.001 -9e-5,-0.002 -5e-5,-5.3e-4 -1.1e-4,-10e-4 -1.6e-4,-0.002 -1.9e-4,-0.002 -5.3e-4,-0.004 -8e-4,-0.006 -7.9e-4,-0.006 -7.9e-4,-0.0118 -7.9e-4,-0.0178 -5e-5,-0.005 -2.6e-4,-0.01 5.3e-4,-0.0147 2.6e-4,-0.002 7.9e-4,-0.004 0.001,-0.007 7.9e-4,-0.007 0.003,-0.013 0.004,-0.0195 10e-4,-0.004 0.003,-0.008 0.005,-0.0125 0.002,-0.004 0.005,-0.008 0.008,-0.0123 0.003,-0.005 0.007,-0.009 0.0113,-0.0127 0.004,-0.003 0.008,-0.006 0.0116,-0.009 0.005,-0.005 0.0117,-0.007 0.0177,-0.0111 8e-4,-5.3e-4 -0.0367,0.0212 0.002,-10e-4 -0.0272,0.0169 -0.004,5.3e-4 0.003,-0.002 2.7e-4,-1.1e-4 7.9e-4,-1.1e-4 10e-4,-2e-4 0.001,-3e-5 0.002,-2.4e-4 0.003,2.6e-4 0.001,6e-5 0.001,0.001 0.002,0.001 10e-4,5.3e-4 -7.9e-4,-0.001 8e-4,8e-4 10e-4,10e-4 0.002,0.002 0.003,0.003 10e-4,0.002 0.002,0.004 0.003,0.006 10e-4,0.003 0.002,0.007 0.002,0.0103 5.3e-4,0.004 0.002,0.008 0.002,0.0126 5.3e-4,0.006 0.001,0.0118 5.3e-4,0.0177 -0.001,0.007 -0.002,0.0149 -0.004,0.0224 -0.002,0.011 -0.004,0.022 -0.006,0.0331 -0.002,0.0116 -0.004,0.0232 -0.006,0.0347 -0.002,0.009 -0.003,0.0175 -0.005,0.0263 -8e-4,0.006 -0.001,0.012 -0.002,0.018 -2.5e-4,0.004 -2.7e-4,0.007 -2.7e-4,0.0112 -4e-5,10e-4 -5e-5,0.002 8e-4,0.004 2.6e-4,1.4e-4 5.2e-4,2.7e-4 7.9e-4,2.3e-4 7.9e-4,-1.5e-4 0.002,-5.3e-4 0.002,-0.001 0.005,-0.003 -0.002,7.9e-4 0.005,-0.002 -0.003,0.002 -0.006,0.004 -0.01,0.006 -0.001,5.3e-4 0.002,-0.002 0.004,-0.002 0.005,-0.004 0.0107,-0.007 0.016,-0.0113 0.006,-0.005 0.0118,-0.01 0.017,-0.0155 0.004,-0.005 0.006,-0.01 0.009,-0.0154 0.002,-0.004 0.003,-0.008 0.003,-0.0123 1e-4,-0.002 5.3e-4,-0.005 1.6e-4,-0.007 -5.3e-4,-10e-4 -7.9e-4,-0.002 -0.001,-0.003 -5.3e-4,-2.6e-4 -0.001,-7.9e-4 -0.002,-7.9e-4 -8e-4,4e-5 -0.002,7.9e-4 -0.002,0.001 0.004,-0.002 0.008,-0.005 0.0126,-0.007 -0.002,0.001 -0.003,0.002 -0.005,0.004 -0.001,7.9e-4 -0.002,0.002 -0.003,0.002 -1.5e-4,1.3e-4 -2.6e-4,2.5e-4 -5.3e-4,2.7e-4 0,0 -0.0144,0.006 -0.0144,0.006 v 0 c 1.7e-4,-8e-5 2.7e-4,-1.5e-4 5.3e-4,-2.3e-4 5.3e-4,-5.3e-4 0.001,-7.9e-4 0.002,-0.001 1.7e-4,-1.7e-4 2.6e-4,-5.3e-4 5.2e-4,-5.3e-4 2.2e-4,-1.6e-4 5.3e-4,-2.1e-4 8e-4,-2.7e-4 0.001,-10e-4 0.003,-0.002 0.004,-0.004 0.005,-0.003 0.009,-0.005 0.0137,-0.008 5.3e-4,-2.7e-4 10e-4,-5.3e-4 0.002,-5.3e-4 2.7e-4,3e-5 8e-4,1.9e-4 0.001,2.6e-4 8e-4,5.3e-4 0.002,0.001 0.002,0.002 8e-4,10e-4 0.001,0.003 0.002,0.004 5.3e-4,0.002 -6e-5,0.005 -9e-5,0.008 -5.2e-4,0.004 -10e-4,0.009 -0.003,0.0127 -0.002,0.006 -0.005,0.011 -0.008,0.0159 -0.005,0.006 -0.011,0.0111 -0.0172,0.0159 -0.003,0.002 -0.005,0.004 -0.008,0.006 -0.009,0.006 -0.0178,0.0115 -0.0271,0.0167 -0.003,10e-4 -0.007,0.004 -0.009,0.002 -10e-4,-0.001 -10e-4,-0.003 -10e-4,-0.005 5e-5,-0.004 1.4e-4,-0.008 5.3e-4,-0.0114 5.3e-4,-0.006 0.001,-0.0122 0.002,-0.0183 0.002,-0.009 0.003,-0.0175 0.005,-0.0263 0.002,-0.0116 0.004,-0.0233 0.006,-0.0349 0.002,-0.011 0.004,-0.022 0.006,-0.0329 0.001,-0.007 0.002,-0.0148 0.003,-0.0221 5.3e-4,-0.006 2.6e-4,-0.0116 -5.3e-4,-0.0174 -5.3e-4,-0.004 -0.002,-0.008 -0.002,-0.0125 -5.3e-4,-0.003 -0.001,-0.007 -0.002,-0.01 -7.9e-4,-0.002 -0.002,-0.004 -0.003,-0.006 -7.9e-4,-0.001 -0.002,-0.002 -0.003,-0.003 -7.9e-4,-5.3e-4 -0.001,-0.001 -0.002,-0.002 -7.9e-4,2.4e-4 -0.002,3e-5 -0.002,2.7e-4 -5.3e-4,1.5e-4 -0.001,2.6e-4 -0.002,5.3e-4 -2.4e-4,1.1e-4 -0.001,5.3e-4 -7.9e-4,2.6e-4 0.004,-0.003 0.0306,-0.0177 -0.002,7.9e-4 0.0221,-0.0129 0.01,-0.006 -0.002,0.001 -0.004,0.002 0.008,-0.005 0.0119,-0.007 2.7e-4,-2.3e-4 -7.9e-4,5.3e-4 -0.001,7.9e-4 -0.004,0.003 0.002,-0.002 -0.003,0.002 -0.004,0.003 -0.008,0.006 -0.0118,0.009 -0.004,0.004 -0.008,0.008 -0.0114,0.0124 -0.003,0.004 -0.006,0.008 -0.008,0.0121 -0.002,0.004 -0.004,0.008 -0.005,0.0122 -0.001,0.004 -5.3e-4,0.002 -0.002,0.006 -10e-4,0.004 -0.002,0.009 -0.003,0.0137 -5.3e-4,0.003 -10e-4,0.007 -0.002,0.01 -2.7e-4,0.004 -3e-5,0.007 -8e-5,0.011 1.6e-4,0.006 2.6e-4,0.0117 0.001,0.0175 2.6e-4,0.003 7.9e-4,0.005 10e-4,0.008 6e-5,5.3e-4 5.3e-4,0.001 2e-4,0.002 -0.004,0.003 -0.009,0.005 -0.0137,0.008 7.9e-4,-0.004 5.3e-4,-0.008 7.9e-4,-0.012 2.7e-4,-0.008 2.7e-4,-0.0151 2.7e-4,-0.0227 4e-5,-0.008 2e-5,-0.0167 5e-5,-0.0251 -1e-5,-0.008 4e-5,-0.0167 -5.3e-4,-0.025 -7.9e-4,-0.009 -0.002,-0.0177 -0.004,-0.0264 -10e-4,-0.006 -0.003,-0.011 -0.005,-0.0163 -0.001,-0.003 -0.002,-0.005 -0.004,-0.007 -10e-4,-10e-4 -0.002,-0.003 -0.004,-0.004 -0.001,-5.3e-4 -0.002,-7.9e-4 -0.003,-5.3e-4 -7.9e-4,-10e-6 -0.002,-2e-5 -0.003,1.5e-4 -0.002,2.5e-4 -0.003,0.001 -0.004,0.002 -0.002,7.9e-4 -0.004,0.002 -0.006,0.003 -0.002,7.9e-4 -0.003,0.001 -0.004,0.002 -5.3e-4,2.6e-4 -0.002,10e-4 -0.002,7.9e-4 0.0272,-0.0162 0.0138,-0.008 0.0103,-0.006 -0.002,0.002 -0.005,0.003 -0.007,0.005 -0.002,0.002 -0.004,0.003 -0.007,0.005 -0.002,0.002 -0.005,0.004 -0.007,0.006 -0.001,0.002 -0.003,0.003 -0.004,0.005 -10e-4,0.001 -0.003,0.003 -0.004,0.004 -0.001,10e-4 -5.2e-4,5.3e-4 -0.001,0.002 -7.9e-4,0.001 -0.002,0.002 -0.003,0.003 -0.001,0.002 -0.003,0.004 -0.004,0.006 -0.002,0.002 -0.004,0.004 -0.005,0.007 -0.002,0.003 -0.004,0.006 -0.007,0.009 0,0 -0.0141,0.006 -0.0141,0.006 z"
         id="path823"
         style="opacity:0.98000004;fill:#00ffff;fill-opacity:1;stroke:none;stroke-width:0.46499997;stroke-miterlimit:4;stroke-dasharray:none;stroke-opacity:1" />
      <path
         inkscape:connector-curvature="0"
         d="m 109.19859,124.74196 c 0.004,0.007 0.009,0.0133 0.014,0.0198 0.008,0.0105 0.0141,0.0225 0.0198,0.0345 0.006,0.0134 0.0119,0.027 0.0169,0.0408 0.003,0.0102 0.007,0.0203 0.0101,0.0306 0.002,0.006 0.003,0.0112 0.004,0.0169 2.4e-4,0.001 0.001,0.007 0.001,0.008 10e-4,0.007 0.002,0.0148 0.002,0.0222 2e-4,0.006 5.2e-4,0.0115 2e-4,0.0173 -2.4e-4,0.005 -10e-4,0.009 -0.002,0.0136 -5.3e-4,0.003 -0.002,0.006 -0.002,0.009 -8e-4,0.002 -0.002,0.005 -0.003,0.007 -0.001,0.002 -0.002,0.003 -0.003,0.004 -0.001,0.002 -0.002,0.003 -0.004,0.004 -7.9e-4,5.3e-4 -2.1e-4,1.4e-4 -0.001,5.3e-4 -0.0456,0.026 0.0307,-0.0177 -0.0156,0.009 -0.001,5.2e-4 -0.002,5.2e-4 -0.004,5.2e-4 -10e-4,-8e-5 -0.002,5.3e-4 -0.003,8e-4 -10e-4,9e-5 -0.003,2.2e-4 -0.004,2.4e-4 -0.002,-2e-5 -0.003,-1e-5 -0.005,-2e-5 -10e-4,0 -0.002,1e-5 -0.004,1e-5 -7.9e-4,-1.3e-4 -0.002,1.7e-4 -0.002,-1e-5 -5.3e-4,-9e-5 -7.9e-4,-2.6e-4 -10e-4,-5.3e-4 -7.9e-4,-2.6e-4 -0.002,-7.9e-4 -0.002,-0.002 -2.7e-4,-8e-4 -8e-4,-0.002 -10e-4,-0.002 -2.7e-4,-0.001 -5.3e-4,-0.003 -5.3e-4,-0.004 -1.8e-4,-0.001 -5.3e-4,-0.002 -7.9e-4,-0.003 -2.6e-4,-0.002 -2e-4,-0.003 -2.2e-4,-0.005 -4e-5,-0.002 -6e-5,-0.004 2.4e-4,-0.006 5.3e-4,-0.003 10e-4,-0.005 0.002,-0.008 5.3e-4,-0.003 0.001,-0.005 0.002,-0.008 5.3e-4,-0.002 0.002,-0.003 0.003,-0.004 7.9e-4,-10e-4 0.002,-0.002 0.003,-0.003 0.005,-0.003 0.0105,-0.008 0.0168,-0.008 8e-4,-3e-5 0.002,1e-5 0.002,1e-5 0.001,9e-5 0.002,0.001 0.002,0.002 10e-4,8e-4 0.002,0.002 0.003,0.003 10e-4,0.002 0.002,0.003 0.003,0.004 10e-4,0.002 0.002,0.004 0.004,0.006 0.001,0.002 0.003,0.004 0.004,0.005 0.001,0.002 0.002,0.003 0.004,0.005 0.002,0.002 0.003,0.004 0.004,0.006 0.001,0.002 0.003,0.004 0.004,0.006 0.001,0.002 0.003,0.004 0.004,0.006 7.9e-4,0.002 0.002,0.003 0.003,0.004 10e-4,0.001 0.002,0.003 0.003,0.004 8e-4,7.9e-4 10e-4,10e-4 0.002,0.002 0.001,1.6e-4 0.002,5.3e-4 0.002,0.001 2.7e-4,-5.3e-4 5.3e-4,-5e-5 7.9e-4,2e-4 5.3e-4,5.3e-4 5.3e-4,1e-5 10e-4,7.9e-4 8e-4,6e-5 8e-4,7.9e-4 0.001,10e-4 6e-5,5e-5 5e-5,-1.6e-4 1.2e-4,-2.1e-4 7e-5,-3e-5 1.6e-4,0 2.4e-4,0 2.7e-4,2.7e-4 0.001,0.001 0.002,8e-4 5.3e-4,4e-5 5.3e-4,7.9e-4 0.001,0.001 6e-5,3e-5 1e-4,-1.1e-4 1.7e-4,-1.1e-4 1.8e-4,1e-5 2.6e-4,1.5e-4 5.3e-4,2.2e-4 5.2e-4,-2.3e-4 5.2e-4,6e-5 0.001,2.7e-4 1.9e-4,1.2e-4 2.7e-4,-2.6e-4 5.3e-4,-2.7e-4 8e-4,-1.4e-4 0.002,-10e-5 0.002,-1.1e-4 0.002,3e-5 0.004,2e-5 0.006,2e-5 0.002,6e-5 0.005,1e-4 0.007,-5.3e-4 0.002,-2.5e-4 0.004,-0.001 0.006,-0.002 -0.003,0.002 0.006,-0.003 0.003,-0.002 -0.004,0.002 -0.0165,0.009 -0.0123,0.007 0.0223,-0.0119 0.009,-0.005 0.0154,-0.009 -0.0224,0.0139 -0.0112,0.006 -0.006,0.003 0.003,-0.002 0.005,-0.004 0.007,-0.007 0.004,-0.004 0.009,-0.008 0.0123,-0.0125 0.005,-0.006 0.009,-0.012 0.0135,-0.0182 0.005,-0.006 0.009,-0.0127 0.0126,-0.0194 0.004,-0.006 0.006,-0.0126 0.008,-0.0192 0.002,-0.007 0.004,-0.0141 0.004,-0.0213 8e-4,-0.007 10e-4,-0.0132 8e-4,-0.0199 -7e-5,-0.002 -5.3e-4,-0.009 -8e-4,-0.0104 -7.9e-4,-0.008 -0.002,-0.0152 -0.004,-0.0225 -0.002,-0.006 -0.005,-0.0117 -0.007,-0.0177 -0.002,-0.005 -0.004,-0.01 -0.006,-0.0139 -0.002,-0.003 -0.004,-0.007 -0.007,-0.0102 -0.002,-0.003 -0.004,-0.006 -0.007,-0.009 -0.003,-0.004 -0.008,-0.006 -0.0117,-0.009 -0.006,-0.004 10e-4,5.3e-4 -0.004,-0.003 -0.003,-0.002 -0.001,-10e-4 -0.004,-0.003 -0.002,-0.002 -0.003,-0.002 -0.005,-0.003 -0.005,-0.002 -0.01,-0.005 -0.0149,-0.006 -0.004,-10e-4 -0.008,-0.002 -0.0124,-0.003 -0.004,-2.7e-4 -0.009,-10e-4 -0.0132,-10e-4 -0.005,-5.3e-4 -0.0109,-2.1e-4 -0.0163,7.9e-4 -0.006,0.001 -0.0108,0.003 -0.016,0.005 -0.003,0.001 -0.003,0.001 -0.005,0.002 -7.9e-4,5.3e-4 -0.003,0.002 -0.003,10e-4 0.0201,-0.0115 0.0101,-0.006 0.006,-0.003 -0.004,0.003 -0.007,0.005 -0.0101,0.009 -0.003,0.003 -0.004,0.006 -0.006,0.009 -10e-4,0.003 -0.002,0.006 -0.003,0.008 -5.3e-4,0.002 -8e-4,0.004 -2.6e-4,0.006 5.3e-4,8e-4 7.9e-4,0.002 0.001,0.002 1.1e-4,1.1e-4 2.6e-4,1.5e-4 5.3e-4,2.3e-4 2e-4,2.2e-4 5.3e-4,5.3e-4 5.3e-4,5.3e-4 0.002,10e-4 0.003,0.002 0.005,0.003 0.002,10e-4 0.005,0.002 0.007,0.003 0.003,10e-4 0.007,10e-4 0.0104,10e-4 0.005,2.5e-4 0.01,-5.3e-4 0.0142,-0.002 0.002,-5.3e-4 0.003,-8e-4 0.004,-0.002 0.005,-0.002 0.0177,-0.01 -0.003,0.002 0.005,-0.003 0.0102,-0.007 0.0154,-0.0109 0.006,-0.004 0.0116,-0.009 0.0173,-0.0134 0.007,-0.005 0.013,-0.0113 0.0191,-0.0175 0.006,-0.006 0.0118,-0.0137 0.0175,-0.0208 0.004,-0.006 0.008,-0.0112 0.0126,-0.0168 0.002,-0.003 0.004,-0.006 0.007,-0.009 1.8e-4,-2.2e-4 2.6e-4,-5.3e-4 5.3e-4,-5.3e-4 0,0 0.0142,-0.006 0.0142,-0.006 v 0 c -2.1e-4,1.7e-4 -5.3e-4,2.6e-4 -5.3e-4,5.2e-4 -0.002,0.002 2.6e-4,-5.2e-4 -10e-4,0.002 -0.002,0.002 -0.004,0.005 -0.006,0.007 -0.004,0.006 -0.009,0.0112 -0.0128,0.0169 -0.003,0.003 -0.005,0.007 -0.008,0.0104 -0.003,0.004 -0.006,0.007 -0.009,0.0107 -0.006,0.006 -0.0121,0.0122 -0.0188,0.0176 -0.006,0.005 -0.0114,0.009 -0.0172,0.0134 -0.005,0.004 -0.0101,0.007 -0.0153,0.011 -0.005,0.003 -0.0103,0.006 -0.0155,0.009 -0.002,0.001 -0.005,0.003 -0.007,0.004 -0.001,5.3e-4 -0.003,10e-4 -0.004,0.002 -0.005,0.001 -0.01,0.002 -0.0146,0.002 -0.004,-8e-5 -0.007,-2.7e-4 -0.0107,-10e-4 -0.003,-8e-4 -0.005,-0.002 -0.008,-0.003 -0.002,-0.001 -0.004,-0.002 -0.005,-0.003 -0.001,-0.001 -0.002,-0.002 -0.003,-0.004 -7.9e-4,-0.002 -5.3e-4,-0.005 -6e-5,-0.007 7.9e-4,-0.003 0.001,-0.006 0.003,-0.009 0.002,-0.003 0.003,-0.007 0.006,-0.01 0.003,-0.004 0.006,-0.006 0.0101,-0.009 0.008,-0.007 0.0179,-0.0119 0.0278,-0.0158 0.005,-0.002 0.0107,-0.004 0.0162,-0.005 0.005,-7.9e-4 0.011,-10e-4 0.0166,-5.3e-4 0.004,5.3e-4 0.009,0.001 0.0133,0.002 0.004,5.3e-4 0.008,0.001 0.0126,0.003 0.005,0.002 0.0101,0.004 0.0149,0.006 0.002,0.001 0.003,0.002 0.005,0.003 0.003,0.002 0.006,0.004 0.008,0.006 0.004,0.003 0.009,0.005 0.012,0.009 0.002,0.003 0.005,0.005 0.007,0.009 0.002,0.003 0.004,0.007 0.006,0.0103 0.003,0.005 0.005,0.009 0.006,0.0142 0.002,0.006 0.005,0.0117 0.007,0.0177 0.002,0.007 0.003,0.0152 0.004,0.023 5.3e-4,0.0102 0.001,0.0204 9e-5,0.0305 -7.9e-4,0.007 -0.002,0.0145 -0.004,0.0215 -10e-4,0.003 -0.002,0.007 -0.004,0.0104 -0.001,0.003 -0.003,0.006 -0.005,0.009 -0.004,0.007 -0.008,0.0133 -0.0127,0.0196 -0.004,0.006 -0.008,0.0125 -0.0133,0.0182 -0.004,0.005 -0.008,0.009 -0.0122,0.0126 -10e-4,10e-4 -0.002,0.002 -0.003,0.003 -2.6e-4,2.6e-4 -0.002,0.002 -0.002,0.002 -8e-4,5.3e-4 -0.002,0.001 -0.002,0.002 -0.007,0.004 -0.012,0.009 -0.0198,0.0122 -5.3e-4,2.1e-4 -0.002,7.9e-4 -0.001,5.3e-4 0.004,-0.002 0.0162,-0.009 0.0121,-0.007 -0.005,0.003 -0.0109,0.007 -0.017,0.009 -0.002,7.9e-4 -0.004,0.001 -0.006,0.002 -0.002,2.7e-4 -0.005,1.3e-4 -0.007,1.8e-4 -0.002,1e-5 -0.004,-10e-6 -0.006,8e-5 -8e-4,3e-5 -0.002,1.3e-4 -0.002,1.6e-4 -8e-4,-1.1e-4 -0.001,-5.3e-4 -0.002,-5.3e-4 -5.3e-4,-2.6e-4 -0.001,-8e-4 -0.002,-8e-4 -5.3e-4,-2.6e-4 -10e-4,-7.9e-4 -0.002,-7.9e-4 -7.9e-4,-5.3e-4 -0.001,-10e-4 -0.002,-0.002 -7.9e-4,-2.3e-4 -0.001,-7.9e-4 -0.002,-0.001 -7.9e-4,-2.6e-4 -0.002,-5.2e-4 -0.002,-10e-4 -8e-4,-8e-4 -0.002,-0.002 -0.002,-0.002 -7.9e-4,-10e-4 -0.002,-0.003 -0.003,-0.004 -0.001,-0.001 -0.003,-0.003 -0.003,-0.005 -0.002,-0.002 -0.003,-0.004 -0.004,-0.006 -0.002,-0.002 -0.003,-0.004 -0.004,-0.006 -10e-4,-0.002 -0.003,-0.004 -0.004,-0.006 -0.001,-0.002 -0.002,-0.003 -0.004,-0.005 -0.001,-0.002 -0.003,-0.004 -0.004,-0.006 -10e-4,-0.002 -0.002,-0.004 -0.004,-0.006 -0.001,-0.002 -0.002,-0.003 -0.004,-0.004 -7.9e-4,-0.001 -0.002,-0.002 -0.003,-0.003 -5.3e-4,-5.3e-4 -7.9e-4,-7.9e-4 -0.002,-7.9e-4 -8e-4,-2e-5 -0.002,0 -0.002,7e-5 -0.006,8e-4 -0.0126,0.007 0.01,-0.007 -0.001,5.3e-4 -0.002,0.002 -0.003,0.002 -0.002,0.002 0.001,-10e-4 -8e-4,0.001 -1.3e-4,1.8e-4 -5.3e-4,2e-4 -5.3e-4,2.6e-4 -1.7e-4,2.1e-4 -1.9e-4,5.3e-4 -2.6e-4,8e-4 -0.002,0.003 10e-4,-0.002 -0.001,0.001 -0.001,0.002 -0.002,0.005 -0.002,0.008 -2.7e-4,0.003 -0.001,0.005 -0.002,0.008 -2.6e-4,0.002 -5.3e-4,0.004 -2.6e-4,0.006 -1e-5,0.002 -1e-5,0.003 1.5e-4,0.005 2e-4,0.001 5.3e-4,0.002 7.9e-4,0.004 2e-5,10e-4 3e-5,0.002 2.5e-4,0.003 2.6e-4,7.9e-4 8e-4,10e-4 0.001,0.002 5.3e-4,5.3e-4 0.001,7.9e-4 0.002,7.9e-4 0.001,2.7e-4 0.002,4e-5 0.003,1.1e-4 0.001,0 0.002,2e-5 0.004,2e-5 0.002,0 0.003,2e-5 0.005,-5e-5 0.001,-8e-5 0.003,-1.6e-4 0.004,-5.3e-4 0.001,-2.7e-4 0.002,-5.3e-4 0.003,-5.3e-4 0.001,-1.5e-4 0.002,-5.3e-4 0.003,-10e-4 -0.004,0.002 -0.008,0.005 -0.0125,0.007 -1.8e-4,1e-4 2.4e-4,-2.7e-4 5.3e-4,-5.3e-4 0.0122,-0.007 0.0236,-0.0135 0.001,-8e-4 -2.6e-4,2e-4 0.001,-0.001 0.001,-5.2e-4 10e-4,-5.3e-4 0.003,-0.002 0.004,-0.003 0.001,-0.002 0.002,-0.003 0.003,-0.004 0.002,-0.002 0.002,-0.004 0.003,-0.007 0.001,-0.002 1.7e-4,-1.6e-4 8e-4,-0.003 5.3e-4,-0.002 0.002,-0.004 0.002,-0.006 7.9e-4,-0.004 0.002,-0.009 0.003,-0.0134 2.7e-4,-0.006 8e-5,-0.0115 -4e-5,-0.0172 -2.6e-4,-0.007 -0.001,-0.0148 -0.002,-0.0222 -2.4e-4,-0.002 -8e-4,-0.006 -10e-4,-0.008 -0.001,-0.006 -0.003,-0.0113 -0.004,-0.0169 -0.003,-0.0104 -0.007,-0.0205 -0.01,-0.0307 -0.005,-0.0138 -0.0107,-0.0274 -0.0168,-0.0408 -0.006,-0.0118 -0.0117,-0.0237 -0.0199,-0.0341 -0.005,-0.006 -0.01,-0.0128 -0.0147,-0.0194 0,0 0.0131,-0.008 0.0131,-0.008 z"
         id="path827"
         style="opacity:0.98000004;fill:#00ffff;fill-opacity:1;stroke:none;stroke-width:0.46499997;stroke-miterlimit:4;stroke-dasharray:none;stroke-opacity:1" />
    </g>
    <ellipse
       style="opacity:0.98000004;fill:#00d4d4;fill-opacity:1;stroke:none;stroke-width:133.20324707;stroke-miterlimit:4;stroke-dasharray:none;stroke-opacity:1"
       id="path851"
       cx="136.7769"
       cy="95.96711"
       rx="17.516104"
       ry="16.832741"
       inkscape:export-xdpi="96"
       inkscape:export-ydpi="96" />
    <ellipse
       style="opacity:0.98000004;fill:#02ff00;fill-opacity:1;stroke:none;stroke-width:182.93214417;stroke-miterlimit:4;stroke-dasharray:none;stroke-opacity:1"
       id="path888"
       cx="120.87968"
       cy="106.84785"
       rx="7.6507125"
       ry="8.0058155"
       inkscape:export-xdpi="96"
       inkscape:export-ydpi="96" />
  </g>
</svg>
