<?xml version="1.0" encoding="UTF-8" standalone="no"?>
<!-- Created with Inkscape (http://www.inkscape.org/) -->

<svg
   xmlns:dc="http://purl.org/dc/elements/1.1/"
   xmlns:cc="http://creativecommons.org/ns#"
   xmlns:rdf="http://www.w3.org/1999/02/22-rdf-syntax-ns#"
   xmlns:svg="http://www.w3.org/2000/svg"
   xmlns="http://www.w3.org/2000/svg"
   xmlns:xlink="http://www.w3.org/1999/xlink"
   xmlns:sodipodi="http://sodipodi.sourceforge.net/DTD/sodipodi-0.dtd"
   xmlns:inkscape="http://www.inkscape.org/namespaces/inkscape"
   width="210mm"
   height="297mm"
   viewBox="0 0 210 297"
   version="1.1"
   id="svg8"
   inkscape:version="0.92.2 5c3e80d, 2017-08-06"
   sodipodi:docname="FaviconMoniqueDacanay2.svg">
  <defs
     id="defs2">
    <linearGradient
       inkscape:collect="always"
       id="linearGradient1363">
      <stop
         style="stop-color:#00ff00;stop-opacity:1;"
         offset="0"
         id="stop1359" />
      <stop
         style="stop-color:#0000ff;stop-opacity:1"
         offset="1"
         id="stop1361" />
    </linearGradient>
    <linearGradient
       inkscape:collect="always"
       id="linearGradient1334">
      <stop
         style="stop-color:#ffdd55;stop-opacity:1;"
         offset="0"
         id="stop1330" />
      <stop
         style="stop-color:#ff2a2a;stop-opacity:1"
         offset="1"
         id="stop1332" />
    </linearGradient>
    <inkscape:path-effect
       effect="spiro"
       id="path-effect1000"
       is_visible="true" />
    <linearGradient
       inkscape:collect="always"
       xlink:href="#linearGradient1334"
       id="linearGradient1336"
       x1="25.4189"
       y1="136.7381"
       x2="31.938988"
       y2="102.05878"
       gradientUnits="userSpaceOnUse"
       gradientTransform="translate(15.780506,11.339286)" />
    <linearGradient
       inkscape:collect="always"
       xlink:href="#linearGradient1363"
       id="linearGradient1365"
       x1="28.598402"
       y1="103.14675"
       x2="74.006599"
       y2="121.98502"
       gradientUnits="userSpaceOnUse"
       gradientTransform="translate(-1.8898809,-5.3861608)" />
  </defs>
  <sodipodi:namedview
     id="base"
     pagecolor="#ffffff"
     bordercolor="#666666"
     borderopacity="1.0"
     inkscape:pageopacity="0.0"
     inkscape:pageshadow="2"
     inkscape:zoom="2.8"
     inkscape:cx="309.53807"
     inkscape:cy="684.18228"
     inkscape:document-units="mm"
     inkscape:current-layer="layer1"
     showgrid="false"
     inkscape:window-width="1920"
     inkscape:window-height="955"
     inkscape:window-x="78"
     inkscape:window-y="260"
     inkscape:window-maximized="0" />
  <metadata
     id="metadata5">
    <rdf:RDF>
      <cc:Work
         rdf:about="">
        <dc:format>image/svg+xml</dc:format>
        <dc:type
           rdf:resource="http://purl.org/dc/dcmitype/StillImage" />
        <dc:title></dc:title>
      </cc:Work>
    </rdf:RDF>
  </metadata>
  <g
     inkscape:label="Layer 1"
     inkscape:groupmode="layer"
     id="layer1">
    <path
       style="fill:none;stroke:#000000;stroke-width:0.26458332px;stroke-linecap:butt;stroke-linejoin:miter;stroke-opacity:1"
       d="m 54.239583,116.70535 c 0,-1.77581 -0.625676,-7.48987 -1.133928,-11.0558 1.016197,0.47933 1.552746,0.17395 2.267857,0.0945 1.576537,2.99845 2.910263,4.49773 3.590774,5.29166 0.485779,-2.20883 0.732694,-4.93403 0.661458,-5.57514 1.704391,0.3959 1.431243,0.3434 2.551339,0.0945 0.447925,2.26553 0.472471,9.04907 0.472471,11.05579 -1.358636,0.32522 -1.304931,0.28348 -2.078869,0.28348 -1.107951,-1.53097 -3.265819,-3.59847 -4.252233,-4.91369 -0.328213,1.00409 0.110682,4.13609 0.283483,4.91369 -0.819324,0.005 -1.462176,-0.089 -2.362352,-0.18899 z"
       id="path1012"
       inkscape:connector-curvature="0"
       inkscape:export-xdpi="96"
       inkscape:export-ydpi="96" />
    <path
       style="fill:none;stroke:#000000;stroke-width:0.26458332px;stroke-linecap:butt;stroke-linejoin:miter;stroke-opacity:1"
       d="m 65.295385,104.8936 c -0.05002,5.00245 -0.01111,10.86133 0.0945,11.81175 1.035788,-0.39726 2.718978,-0.0864 3.496276,1e-5"
       id="path1014"
       inkscape:connector-curvature="0"
       inkscape:export-xdpi="96"
       inkscape:export-ydpi="96" />
    <path
       style="fill:none;stroke:#000000;stroke-width:0.26458332px;stroke-linecap:butt;stroke-linejoin:miter;stroke-opacity:1"
       d="M 68.886159,116.70536 C 68.627442,112.20318 68.05491,105.70714 67.752232,104.7991"
       id="path1016"
       inkscape:connector-curvature="0"
       inkscape:export-xdpi="96"
       inkscape:export-ydpi="96" />
    <path
       style="fill:none;stroke:#000000;stroke-width:0.26458332px;stroke-linecap:butt;stroke-linejoin:miter;stroke-opacity:1"
       d="m 65.295385,104.8936 c 0.504891,-0.43657 1.44875,-0.2065 2.456847,-0.0945"
       id="path1018"
       inkscape:connector-curvature="0"
       inkscape:export-xdpi="96"
       inkscape:export-ydpi="96" />
    <path
       style="fill:none;stroke:#000000;stroke-width:0.26458332px;stroke-linecap:butt;stroke-linejoin:miter;stroke-opacity:1"
       d="m 64.728423,100.83035 c 0.936617,1.46323 1.764734,1.2547 2.456844,0.66146 0.884424,-2.278693 -0.03104,-2.28525 -1.228422,-2.551334 -2.234712,-0.01879 -1.597638,1.677114 -1.228422,2.267854"
       id="path1020"
       inkscape:connector-curvature="0"
       inkscape:export-xdpi="96"
       inkscape:export-ydpi="96" />
    <path
       style="fill:none;stroke:#000000;stroke-width:0.26458332px;stroke-linecap:butt;stroke-linejoin:miter;stroke-opacity:1"
       d="m 80.31994,106.31101 c -1.307843,-2.66333 -5.747499,-2.50236 -6.898066,-0.66146 -4.434249,7.70315 3.299432,14.75365 7.087055,8.69346 0.589589,1.71426 0.973176,2.50767 1.41741,3.30729 1.114923,-0.15662 1.532864,-0.39779 1.700893,-0.47247 -0.366212,-3.5291 -1.210726,-4.23159 -2.362351,-5.57515 0.08955,-2.73991 -0.743052,-3.47468 -0.944941,-5.29167 z"
       id="path1024"
       inkscape:connector-curvature="0"
       inkscape:export-xdpi="96"
       inkscape:export-ydpi="96" />
    <path
       style="fill:none;stroke:#000000;stroke-width:0.26458332px;stroke-linecap:butt;stroke-linejoin:miter;stroke-opacity:1"
       d="m 77.390624,107.16146 c -3.385913,-3.53531 -5.072822,9.47426 0.377976,5.38616 -0.698421,-1.0513 -0.840327,-1.27793 -1.228421,-1.79539 0.340477,-0.71964 0.423616,-0.60516 0.661458,-0.94494 0.569824,0.35113 0.699796,0.50894 1.039435,0.75595 0.435316,-0.7919 -0.282706,-2.2663 -0.850448,-3.40178 z"
       id="path1026"
       inkscape:connector-curvature="0"
       inkscape:export-xdpi="96"
       inkscape:export-ydpi="96" />
    <path
       style="fill:none;stroke:#000000;stroke-width:0.26458332px;stroke-linecap:butt;stroke-linejoin:miter;stroke-opacity:1"
       d="m 84.950148,105.83854 c -3.688657,10.10916 8.031993,14.47746 8.031993,6.61458 0,-0.91344 0,1.82689 0,2.74033 0,2.20528 1.008685,1.68468 1.889882,1.13393 0.923801,-3.71297 0.768174,-7.55178 0.09449,-10.58333 -2.1336,-0.44293 -2.302663,-0.45534 -3.307287,-0.56697 0.121649,4.23097 -1.435847,6.82201 -1.889881,7.27604 -2.893606,0.90724 -3.401612,-4.63098 -2.834821,-7.18154 -0.581351,0.1451 -1.048531,0.359 -1.984376,0.56696 z"
       id="path1028"
       inkscape:connector-curvature="0"
       inkscape:export-xdpi="96"
       inkscape:export-ydpi="96" />
    <path
       style="fill:none;stroke:#000000;stroke-width:0.26458332px;stroke-linecap:butt;stroke-linejoin:miter;stroke-opacity:1"
       d="m 99.313242,106.12202 c 0.488294,4.12075 -1.694744,9.77866 0.566965,11.71726 2.416873,-0.19739 4.822483,-0.51373 6.709083,-0.0945"
       id="path1030"
       inkscape:connector-curvature="0"
       inkscape:export-xdpi="96"
       inkscape:export-ydpi="96" />
    <path
       style="fill:none;stroke:#000000;stroke-width:0.26458332px;stroke-linecap:butt;stroke-linejoin:miter;stroke-opacity:1"
       d="m 99.313242,106.12202 c 2.197138,-0.32138 6.044448,0.0521 7.276038,0.18899 -0.27845,0.99371 -0.35956,1.3622 -0.47246,1.70089 -1.95004,0.18059 -3.33893,0.12951 -3.87426,0.18899 -0.67972,1.49352 -0.78296,2.15314 -1.03943,3.30729 1.69138,0.46244 1.78139,0.26093 2.83482,0.37798 0.048,1.21883 -0.0679,1.43937 -0.18899,1.98438 -0.82739,-0.15102 -2.09823,-0.0945 -2.64583,-0.0945 -0.38154,2.90913 0.80364,1.99615 3.21279,1.79539 3.30024,-0.5234 2.29767,1.05458 2.17337,2.17335"
       id="path1043"
       inkscape:connector-curvature="0"
       inkscape:export-xdpi="96"
       inkscape:export-ydpi="96" />
    <path
       style="fill:none;stroke:#000000;stroke-width:0.26458332px;stroke-linecap:butt;stroke-linejoin:miter;stroke-opacity:1"
       d="m 21.544643,103.94866 c -0.328592,4.27485 0.05923,9.19985 -0.377977,13.13467"
       id="path1218"
       inkscape:connector-curvature="0"
       inkscape:export-xdpi="96"
       inkscape:export-ydpi="96" />
    <path
       style="fill:none;stroke:#000000;stroke-width:0.26458332px;stroke-linecap:butt;stroke-linejoin:miter;stroke-opacity:1"
       d="m 21.544643,103.94866 c -1.782087,0.36559 -2.319875,0.13071 -2.645834,0.0945 0.246962,-0.90372 0.283483,-1.70039 0.283483,-2.07887 2.866624,-0.10337 4.099042,0.007 5.008184,-0.0945 1.09431,3.22268 1.963604,5.6281 2.362351,6.4256 0.707726,0.88654 0.612434,0.97989 0.944941,1.5119 2.074963,-3.36698 3.298046,-6.41481 4.44122,-7.74851 0.870998,0.15482 2.498664,0.0945 2.551339,0.0945 -0.331313,5.3549 -0.188988,13.3986 -0.188988,14.26859"
       id="path1220"
       inkscape:connector-curvature="0"
       inkscape:export-xdpi="96"
       inkscape:export-ydpi="96" />
    <path
       style="fill:none;stroke:#000000;stroke-width:0.26458332px;stroke-linecap:butt;stroke-linejoin:miter;stroke-opacity:1"
       d="m 21.166666,117.08333 c -1.524109,0.19248 -1.446808,0.046 -2.078869,-0.0945 1e-6,0.52649 1e-6,1.03756 1e-6,1.60641 1.462206,-0.0242 3.898183,0 4.252232,0 0.795978,0 0.540026,0 0.755952,0 0.124331,-0.8611 0.315629,-1.42033 0.377976,-1.7009 -0.741283,-0.0365 -0.878825,0.0628 -1.322916,0.0945 0.383964,-3.03264 0.566964,-5.94132 0.566964,-8.50447 0.409143,1.30285 1.194659,2.92252 1.700893,4.44122"
       id="path1222"
       inkscape:connector-curvature="0"
       inkscape:export-xdpi="96"
       inkscape:export-ydpi="96" />
    <path
       style="fill:none;stroke:#000000;stroke-width:0.26458332px;stroke-linecap:butt;stroke-linejoin:miter;stroke-opacity:1"
       d="m 25.418899,112.92559 c 1.954776,-0.0569 2.021956,0.18899 3.307291,0.18899 0.609722,-1.90687 1.147992,-2.79057 2.173364,-4.15774 -0.193373,2.60355 -0.283483,6.25476 -0.283483,8.032 -0.952104,0.15026 -1.613884,0.0945 -2.362351,0.0945 -0.09864,0.93085 0.222768,2.05877 0.283482,2.36234 2.24143,-0.5676 5.685562,0.18899 6.52009,0.18899 0.416533,-2.18994 1.176516,-2.61819 -0.755953,-3.2128"
       id="path1242"
       inkscape:connector-curvature="0"
       inkscape:export-xdpi="96"
       inkscape:export-ydpi="96" />
    <path
       style="fill:none;stroke:#000000;stroke-width:0.26458332px;stroke-linecap:butt;stroke-linejoin:miter;stroke-opacity:1"
       d="m 39.781993,122.94196 67.846727,-0.47247"
       id="path1244"
       inkscape:connector-curvature="0"
       inkscape:export-xdpi="96"
       inkscape:export-ydpi="96" />
    <path
       style="fill:none;stroke:#000000;stroke-width:0.26458332px;stroke-linecap:butt;stroke-linejoin:miter;stroke-opacity:1"
       d="m 19.276786,123.22544 20.505207,-0.28348"
       id="path1246"
       inkscape:connector-curvature="0"
       inkscape:export-xdpi="96"
       inkscape:export-ydpi="96" />
    <path
       sodipodi:type="spiral"
       style="fill:url(#linearGradient1336);fill-opacity:1;fill-rule:evenodd;stroke:#000000;stroke-width:0.26458332"
       id="path1328"
       sodipodi:cx="34.868305"
       sodipodi:cy="129.93452"
       sodipodi:expansion="1"
       sodipodi:revolution="7.7644501"
       sodipodi:radius="103.68748"
       sodipodi:argument="-48.497166"
       sodipodi:t0="0"
       d="m 34.868305,129.93452 c -0.394177,1.96961 -2.849466,0.4404 -3.273618,-0.65514 -1.149428,-2.96885 1.886021,-5.59235 4.583916,-5.89209 4.825902,-0.53617 8.458313,4.00285 8.510558,8.51268 0.07667,6.61836 -6.137603,11.37936 -12.441452,11.12903 -8.402039,-0.33365 -14.322069,-8.2773 -13.747497,-16.37022 0.723039,-10.18411 10.419015,-17.27563 20.298987,-16.36597 11.965969,1.10173 20.235407,12.5618 18.984437,24.22776 -1.474225,13.74793 -14.705222,23.19907 -28.156522,21.6029 C 14.097055,154.28064 3.4617775,139.27439 5.4057369,124.03818 7.614587,106.72584 24.399,94.904767 41.419795,97.198337 60.514554,99.771377 73.522616,118.336 70.878111,137.14116 67.942209,158.01845 47.595867,172.21438 27.006518,169.21795 4.3466023,165.92018 -11.037859,143.79099 -7.6887379,121.41759 -4.0298716,96.97497 19.883042,80.401452 44.040391,84.103863 c 26.225386,4.019362 43.988374,29.716687 39.932195,55.657897 -4.379377,28.00821 -31.861671,46.961 -59.586664,42.55066 -29.7910761,-4.739 -49.933952,-34.00671 -45.169135,-63.51543 5.098299,-31.573981 36.151805,-52.907167 67.444199,-47.787602 33.356924,5.45733 55.880614,38.296942 50.406075,71.372962 -5.816135,35.1399 -40.442112,58.85425 -75.301735,53.02455 -36.922886,-6.17475 -61.82804,-42.58732 -55.643014,-79.2305 6.533193,-38.705906 44.732546,-64.801981 83.15927,-58.261487 40.488938,6.891498 67.776038,46.877797 60.879958,87.088037 -7.24968,42.27199 -49.023082,70.75021 -91.01681,63.49842 C -24.910326,200.89362 -54.579741,157.333 -46.972162,113.5558 -39.006435,67.717664 6.3415229,36.856982 51.902178,44.820438 99.523406,53.144058 131.57542,100.27945 123.25601,147.62355 114.57457,197.02788 65.651658,230.27127 16.524135,221.59585 -34.663309,212.55666 -69.098142,161.84614 -60.066637,110.9352 -50.669759,57.96464 1.8284311,22.338327 54.522774,31.725963 109.27647,41.480478 146.0943,95.766405 136.35049,150.24414 c -0.5521,3.08678 -1.24461,6.14841 -2.07442,9.17238" />
    <path
       style="fill:url(#linearGradient1365);fill-opacity:1;stroke:#000000;stroke-width:0.26458332px;stroke-linecap:butt;stroke-linejoin:miter;stroke-opacity:1"
       d="m 14.268601,121.43006 c 5.200919,0.32781 11.339166,0.40822 16.819941,0.18899 5.190815,-0.20764 10.277247,-2.26136 15.497024,-2.55134 10.324772,-0.5736 20.834093,0 31.183035,0 7.882225,0 27.822739,1.78155 34.301339,-0.37798 -1.97559,-7.09163 -5.31738,-16.82328 -8.50446,-21.922621 -11.222878,-0.29353 -27.605352,5.153381 -38.459081,3.11831 -11.444673,-2.14588 -22.962142,-4.06664 -34.584822,-6.14212 -5.809368,-1.03738 -12.650842,-1.16164 -18.237351,-3.02381 -0.693099,-0.23103 -2.173363,0.44711 -2.173363,-0.28348 0,-0.25375 1.441878,5.01665 4.044849,7.13888"
       id="path1357"
       inkscape:connector-curvature="0" />
    <g
       id="g1349"
       transform="translate(-3.3468467,0.85277241)"
       inkscape:export-xdpi="96"
       inkscape:export-ydpi="96">
      <path
         transform="scale(0.26458333)"
         inkscape:connector-curvature="0"
         id="path1248"
         d="m 125.21664,450.69054 c -4.16543,-0.56251 -12.40509,-0.7592 -15.05356,-0.35934 l -1.83927,0.27769 -0.39287,-1.83189 c -0.21608,-1.00754 -0.39287,-2.70791 -0.39287,-3.7786 v -1.94671 l 3.66071,-0.005 c 5.76721,-0.008 5.11677,1.32221 5.38193,-11.00403 0.12539,-5.82903 0.4083,-13.05971 0.62869,-16.06817 0.22039,-3.00846 0.31516,-5.55548 0.21061,-5.66003 -0.10456,-0.10456 -1.16138,1.11986 -2.3485,2.72092 -2.34921,3.16838 -5.33463,8.82148 -6.33558,11.99684 -0.58387,1.85225 -0.69969,1.98773 -1.53961,1.80089 -0.49954,-0.11112 -3.1137,-0.30872 -5.80924,-0.43911 l -4.900995,-0.23707 -0.410665,-1.28483 c -0.225865,-0.70663 -1.415888,-3.77588 -2.644496,-6.82052 -1.228608,-3.04464 -2.42672,-6.13839 -2.662471,-6.875 -0.299099,-0.93454 -0.636133,-1.33928 -1.115226,-1.33928 -0.627624,0 -0.686886,0.28371 -0.690044,3.30357 -0.0063,6.05642 -1.109355,21.33022 -2.02041,27.97709 l -0.23168,1.69029 2.377772,-0.22204 c 2.678237,-0.2501 2.557894,-0.42845 1.880358,2.7868 l -0.451554,2.14286 -8.81123,0.0955 -8.81123,0.0955 -5.1e-5,-2.23839 -5.2e-5,-2.23838 3.076896,0.12763 c 3.951267,0.16389 4.648046,-0.17711 4.909508,-2.4027 0.106839,-0.90942 0.353392,-11.61778 0.547895,-23.79636 0.194503,-12.17857 0.458628,-22.64205 0.586944,-23.25217 0.316702,-1.50588 -0.256396,-1.66885 -4.07881,-1.15993 -1.706892,0.22725 -3.676718,0.30564 -4.377392,0.1742 l -1.273952,-0.239 0.292036,-1.69012 c 0.160619,-0.92956 0.387434,-2.45072 0.504033,-3.38035 l 0.211997,-1.69024 8.818331,-0.0955 8.818332,-0.0955 2.892877,8.21429 c 4.192864,11.90558 5.353593,14.76546 6.885219,16.96428 0.75254,1.08036 1.71627,2.64733 2.14162,3.48215 0.42536,0.83482 0.8973,1.51785 1.04876,1.51785 0.41056,0 4.4365,-6.98542 9.36543,-16.25 2.40359,-4.51785 5.06832,-9.2991 5.92164,-10.625 l 1.55148,-2.41071 h 4.46878 4.46878 l -0.26515,4.91071 c -0.14583,2.7009 -0.26515,14.78334 -0.26515,26.84987 v 21.93915 l 2.14286,1.09656 c 2.61771,1.33956 2.69282,1.64162 1.5826,6.36442 l -0.81856,3.48215 -1.63202,-0.0466 c -0.89761,-0.0256 -3.23917,-0.26361 -5.20345,-0.52887 z"
         style="opacity:0.98000004;fill:#00ffff;fill-opacity:1;stroke:#25f21b;stroke-width:0.62767154;stroke-miterlimit:4;stroke-dasharray:none;stroke-opacity:1" />
      <path
         transform="scale(0.26458333)"
         inkscape:connector-curvature="0"
         id="path1250"
         d="m 211.28807,441.05787 c -0.39286,-0.0609 -1.78756,-0.21134 -3.09933,-0.33418 l -2.38503,-0.22335 -0.19457,-2.20647 c -0.10701,-1.21355 -0.37085,-4.37611 -0.58632,-7.02789 -0.58083,-7.1484 -2.90708,-27.75853 -3.36592,-29.82143 -0.15107,-0.6792 0.0263,-0.71429 3.60984,-0.71429 h 3.76871 l 1.92943,3.35419 c 4.26433,7.41323 11.76066,17.39618 12.31664,16.4022 0.46533,-0.83191 2.04492,-11.02871 2.49764,-16.12314 0.42433,-4.77487 0.46362,-4.92965 1.18816,-4.68032 0.41212,0.14183 2.2761,0.28999 4.14218,0.32925 l 3.39285,0.0714 0.24617,1.71785 c 0.52836,3.68708 1.01854,13.88341 1.24193,25.83362 l 0.23369,12.50085 -1.39661,0.37436 c -0.76813,0.20589 -2.28785,0.47837 -3.37715,0.6055 l -1.98055,0.23116 -1.98511,-2.45131 c -1.09181,-1.34822 -4.03794,-4.7013 -6.54695,-7.4513 -2.50902,-2.75 -5.38442,-6.01766 -6.38979,-7.26147 l -1.82794,-2.26146 -0.49247,1.19003 c -0.58524,1.41424 -0.33901,10.38546 0.41741,15.2079 0.5002,3.18894 0.57495,3.03808 -1.35691,2.73832 z"
         style="opacity:0.98000004;fill:#00ffff;fill-opacity:1;stroke:#25f21b;stroke-width:0.62767154;stroke-miterlimit:4;stroke-dasharray:none;stroke-opacity:1" />
      <path
         transform="scale(0.26458333)"
         inkscape:connector-curvature="0"
         id="path1252"
         d="m 247.72216,439.54034 c -0.10125,-0.2616 -0.18409,-10.0078 -0.18409,-21.65822 0,-18.98628 0.0586,-21.20506 0.56492,-21.39936 0.70913,-0.27212 4.97038,-0.20836 6.39936,0.0957 1.01716,0.21647 1.09318,0.35931 1.50084,2.81986 0.62322,3.76173 1.75917,15.27153 2.58118,26.15333 0.39322,5.20536 0.80446,10.59586 0.91387,11.97889 l 0.19893,2.5146 -5.89545,-0.0146 c -4.56875,-0.0113 -5.93689,-0.12163 -6.07956,-0.49023 z"
         style="opacity:0.98000004;fill:#00ffff;fill-opacity:1;stroke:#25f21b;stroke-width:0.62767154;stroke-miterlimit:4;stroke-dasharray:none;stroke-opacity:1" />
      <path
         transform="scale(0.26458333)"
         inkscape:connector-curvature="0"
         id="path1254"
         d="m 246.27577,382.15974 c -2.12765,-2.13815 -2.30913,-2.44202 -2.30913,-3.86632 0,-2.90148 2.86327,-4.24543 6.99741,-3.28441 2.80551,0.65216 3.88535,1.83797 3.55856,3.90779 -0.65177,4.12822 -1.83182,5.55941 -4.58613,5.56213 -1.18915,0.001 -1.62909,-0.27755 -3.66071,-2.31919 z"
         style="opacity:0.98000004;fill:#00ffff;fill-opacity:1;stroke:#25f21b;stroke-width:0.62767154;stroke-miterlimit:4;stroke-dasharray:none;stroke-opacity:1" />
      <path
         transform="scale(0.26458333)"
         inkscape:connector-curvature="0"
         id="path1256"
         d="m 308.43317,440.81955 c -0.74094,-1.62054 -1.89897,-4.4705 -2.57342,-6.33324 -0.67444,-1.86275 -1.27185,-3.4324 -1.32757,-3.48812 -0.0557,-0.0557 -0.93053,1.01384 -1.94404,2.3768 -6.31,8.48567 -15.63677,8.96749 -22.93982,1.18507 -2.55033,-2.71773 -4.99227,-7.55024 -5.87482,-11.62605 -0.7833,-3.61746 -0.56568,-10.35781 0.45167,-13.98946 0.96553,-3.44668 2.79893,-7.71205 4.06778,-9.46365 3.38906,-4.67846 12.19029,-6.06373 18.81563,-2.96147 2.60848,1.22139 5.30247,3.98008 5.77304,5.9117 0.20278,0.83238 1.03013,3.89976 1.83855,6.8164 1.13316,4.08827 1.5143,6.17381 1.66388,9.10461 l 0.19402,3.80162 2.1109,2.50254 c 3.57488,4.23815 5.5052,9.07123 6.50649,16.29077 l 0.2282,1.64537 -2.09123,0.58677 c -3.39254,0.9519 -3.38308,0.95646 -4.89926,-2.35966 z m -17.08606,-13.09558 c 2.27656,-1.18297 3.33381,-1.92531 3.33381,-2.34079 0,-0.14758 -1.0309,-1.75726 -2.29089,-3.57706 l -2.29089,-3.30874 0.6548,-1.07673 c 0.36014,-0.59221 0.81371,-1.17495 1.00793,-1.29498 0.19422,-0.12004 1.18441,0.43884 2.20041,1.24195 1.01601,0.8031 1.893,1.4061 1.94887,1.33999 1.64455,-1.94588 1.0584,-5.83809 -1.77891,-11.81267 -0.96957,-2.04162 -1.64677,-2.95862 -2.74907,-3.72252 -5.39057,-3.73567 -10.74265,2.57918 -11.24867,13.27213 -0.4938,10.43494 4.04707,15.00287 11.21261,11.27942 z"
         style="opacity:0.98000004;fill:#00ffff;fill-opacity:1;stroke:#25f21b;stroke-width:0.62767154;stroke-miterlimit:4;stroke-dasharray:none;stroke-opacity:1" />
      <path
         transform="scale(0.26458333)"
         inkscape:connector-curvature="0"
         id="path1258"
         d="m 353.69469,440.67094 c -1.1146,-0.44904 -1.33705,-1.80427 -1.51377,-9.22213 -0.16133,-6.77235 -0.23888,-7.50729 -0.80357,-7.61547 -0.52635,-0.10084 -0.625,0.1559 -0.625,1.62657 0,8.37955 -4.53786,14.00762 -11.30166,14.01686 -6.97851,0.01 -13.69586,-4.71801 -17.4216,-12.26101 -2.21462,-4.48363 -2.82288,-7.24309 -2.84662,-12.91407 -0.0195,-4.65532 0.23456,-6.40824 1.607,-11.08797 l 0.73803,-2.51653 2.916,-0.88877 2.916,-0.88877 0.004,6.79817 c 0.004,5.98786 0.10453,7.18128 0.84651,10.01244 1.05669,4.03202 2.47175,6.87198 4.16473,8.35844 1.68422,1.47877 2.62074,1.82013 4.99343,1.82013 2.38251,0 3.04917,-0.62478 5.11492,-4.79363 2.50381,-5.0529 4.05347,-11.50204 4.54393,-18.91018 l 0.25704,-3.88239 2.00194,0.23475 c 2.74515,0.32192 8.70526,1.5857 9.00231,1.90886 0.45895,0.49929 1.41274,7.26187 1.82718,12.95513 0.45536,6.25545 0.0716,14.12993 -0.98288,20.16604 -0.98483,5.63759 -1.0182,5.71054 -3.00233,6.5641 -0.96825,0.41652 -1.81103,0.74463 -1.87283,0.72913 -0.0618,-0.0155 -0.31509,-0.10987 -0.56288,-0.2097 z"
         style="opacity:0.98000004;fill:#00ffff;fill-opacity:1;stroke:#25f21b;stroke-width:0.62767154;stroke-miterlimit:4;stroke-dasharray:none;stroke-opacity:1" />
      <path
         transform="scale(0.26458333)"
         inkscape:connector-curvature="0"
         id="path1260"
         d="m 376.98096,443.74364 c -2.79432,-2.91663 -3.26391,-8.99471 -1.78673,-23.12602 0.55129,-5.27394 0.94225,-11.1034 0.93827,-13.9903 l -0.007,-4.94908 2.40263,-0.25847 c 4.00293,-0.43064 22.5931,0.45334 23.24509,1.10533 0.0795,0.0795 -0.143,1.2533 -0.49447,2.60841 l -0.63904,2.46384 -2.89019,0.22503 c -1.5896,0.12377 -4.33661,0.22776 -6.10447,0.2311 -1.76786,0.003 -3.80158,0.10319 -4.51938,0.22189 -1.25099,0.20688 -1.3528,0.33624 -2.45619,3.12107 -0.63311,1.59789 -1.55751,4.56777 -2.05421,6.59973 -0.74365,3.04215 -0.81756,3.74735 -0.41861,3.99392 0.76854,0.47498 6.40658,1.42027 8.46625,1.41947 l 1.875,-7.3e-4 v 1.91965 c 0,1.0558 -0.10045,2.42187 -0.22322,3.03571 l -0.22321,1.11607 h -5.1055 -5.10551 l -0.24068,2.24746 c -0.2758,2.57541 0.22728,4.93884 1.2741,5.98567 0.91607,0.91607 3.19473,0.90813 10.15973,-0.0354 5.73563,-0.77698 8.32887,-0.68361 9.24889,0.333 0.72093,0.79662 0.80305,1.5491 0.44699,4.0959 l -0.29233,2.09093 -1.98478,-0.24798 c -2.97151,-0.37126 -12.12768,-0.22529 -17.69508,0.2821 l -4.91916,0.44833 -0.89735,-0.93664 z"
         style="opacity:0.98000004;fill:#00ffff;fill-opacity:1;stroke:#25f21b;stroke-width:0.62767154;stroke-miterlimit:4;stroke-dasharray:none;stroke-opacity:1" />
      <g
         id="g1266">
        <g
           id="g1270">
          <ellipse
             ry="6.7563248"
             rx="6.1421127"
             cy="110.23251"
             cx="44.317711"
             id="path985"
             style="opacity:0.98000004;fill:#00ffff;fill-opacity:1;stroke:#25f21b;stroke-width:0.46499997;stroke-miterlimit:4;stroke-dasharray:none;stroke-opacity:1" />
          <ellipse
             ry="2.7403271"
             rx="2.6930804"
             cy="110.65774"
             cx="45.026413"
             id="path1262"
             style="opacity:0.98000004;fill:#00ffff;fill-opacity:1;stroke:#25f21b;stroke-width:0.46499997;stroke-miterlimit:4;stroke-dasharray:none;stroke-opacity:1" />
        </g>
      </g>
    </g>
    <path
       style="fill:none;stroke:#000000;stroke-width:0.26458332px;stroke-linecap:butt;stroke-linejoin:miter;stroke-opacity:1"
       d="m 14.155712,97.574885 c -0.371845,-0.33226 -0.72782,-0.68317 -1.115534,-0.99677 -0.09668,-0.0782 0.288791,4.215075 -0.188988,7.559535 -0.867997,6.07598 1.417411,11.38688 1.417411,17.29241"
       id="path1355"
       inkscape:connector-curvature="0" />
    <path
       sodipodi:type="star"
       style="opacity:0.98000004;fill:#ff00ff;fill-opacity:1;stroke:#25f21b;stroke-width:0.46499997;stroke-miterlimit:4;stroke-dasharray:none;stroke-opacity:1"
       id="path1367"
       sodipodi:sides="5"
       sodipodi:cx="50.270832"
       sodipodi:cy="132.20238"
       sodipodi:r1="4.2846565"
       sodipodi:r2="4.2846565"
       sodipodi:arg1="0.84781697"
       sodipodi:arg2="1.4761355"
       inkscape:flatsided="false"
       inkscape:rounded="10"
       inkscape:randomized="0.008"
       d="m 53.136827,135.43585 c -20.11374,17.32134 23.924744,-1.22519 -2.493165,1.01577 -26.41791,2.24095 20.224102,13.15681 -2.528977,-0.56853 -22.753079,-13.72534 8.827029,22.28535 -1.748201,-1.95062 -10.57523,-24.23597 -6.210153,23.07424 -0.309624,-2.65784 5.90053,-25.73207 -18.621011,15.17954 1.382765,-2.3177 20.003776,-17.49723 -23.869419,1.50693 2.415509,-1.00942 26.284928,-2.51636 -20.428799,-12.73693 2.561773,0.53629 22.990572,13.27322 -8.665429,-22.31117 1.762197,2.00046 10.427626,24.31163 6.061237,-23.26647 0.240998,2.65191 -5.820238,25.91838 18.830465,-15.02165 -1.283275,2.29968 z"
       inkscape:transform-center-x="-0.25171479"
       inkscape:transform-center-y="0.60231457" />
    <path
       inkscape:transform-center-y="0.33734588"
       inkscape:transform-center-x="-0.14370262"
       d="m 53.136827,135.43585 c -20.11374,17.32134 23.924744,-1.22519 -2.493165,1.01577 -26.41791,2.24095 20.224102,13.15681 -2.528977,-0.56853 -22.753079,-13.72534 8.827029,22.28535 -1.748201,-1.95062 -10.57523,-24.23597 -6.210153,23.07424 -0.309624,-2.65784 5.90053,-25.73207 -18.621011,15.17954 1.382765,-2.3177 20.003776,-17.49723 -23.869419,1.50693 2.415509,-1.00942 26.284928,-2.51636 -20.428799,-12.73693 2.561773,0.53629 22.990572,13.27322 -8.665429,-22.31117 1.762197,2.00046 10.427626,24.31163 6.061237,-23.26647 0.240998,2.65191 -5.820238,25.91838 18.830465,-15.02165 -1.283275,2.29968 z"
       inkscape:randomized="0.008"
       inkscape:rounded="10"
       inkscape:flatsided="false"
       sodipodi:arg2="1.4761355"
       sodipodi:arg1="0.84781697"
       sodipodi:r2="4.2846565"
       sodipodi:r1="4.2846565"
       sodipodi:cy="132.20238"
       sodipodi:cx="50.270832"
       sodipodi:sides="5"
       id="path1369"
       style="opacity:0.98000004;fill:#ff00ff;fill-opacity:1;stroke:#25f21b;stroke-width:0.46499997;stroke-miterlimit:4;stroke-dasharray:none;stroke-opacity:1"
       sodipodi:type="star"
       transform="matrix(0.57089474,0,0,0.56008322,47.337513,16.951902)"
       inkscape:export-xdpi="96"
       inkscape:export-ydpi="96" />
    <path
       sodipodi:type="star"
       style="opacity:0.98000004;fill:#ffaaaa;fill-opacity:1;stroke:#25f21b;stroke-width:0.46499997;stroke-miterlimit:4;stroke-dasharray:none;stroke-opacity:1"
       id="path1371"
       sodipodi:sides="5"
       sodipodi:cx="94.116074"
       sodipodi:cy="129.93452"
       sodipodi:r1="1.3628125"
       sodipodi:r2="1.3628125"
       sodipodi:arg1="0.5880026"
       sodipodi:arg2="1.2163211"
       inkscape:flatsided="false"
       inkscape:rounded="10"
       inkscape:randomized="0.008"
       d="m 95.252582,130.69838 c -4.738886,6.96342 7.228198,-2.39875 -0.657883,0.5157 -7.886077,2.91445 7.243121,2.32575 -0.843272,0.031 -8.086393,-2.29474 4.604614,6.09179 -0.704766,-0.46449 -5.30938,-6.55629 0.02833,7.60808 -0.298648,-0.79306 -0.326983,-8.40114 -4.509839,6.12767 0.226996,-0.81657 4.736834,-6.94424 -7.224049,2.45031 0.657882,-0.5157 7.881929,-2.966 -7.264206,-2.2672 0.85311,-0.0416 8.117319,2.22563 -4.493894,-6.15382 0.702393,0.4861 5.196286,6.63991 -0.101906,-7.63021 0.291183,0.78202 0.39309,8.41223 4.51189,-6.14685 -0.226995,0.81657 z"
       inkscape:transform-center-x="-0.007748762"
       inkscape:transform-center-y="-0.0041329152"
       inkscape:export-xdpi="96"
       inkscape:export-ydpi="96" />
    <path
       sodipodi:type="star"
       style="opacity:0.98000004;fill:#ffaaaa;fill-opacity:1;stroke:#25f21b;stroke-width:0.46499997;stroke-miterlimit:4;stroke-dasharray:none;stroke-opacity:1"
       id="path1373"
       sodipodi:sides="5"
       sodipodi:cx="87.501488"
       sodipodi:cy="137.77753"
       sodipodi:r1="0.68792707"
       sodipodi:r2="0.68792707"
       sodipodi:arg1="-1.2924967"
       sodipodi:arg2="-0.66417814"
       inkscape:flatsided="false"
       inkscape:rounded="10"
       inkscape:randomized="0.008"
       d="m 87.692626,137.11063 c 4.090993,1.15473 -2.230444,-3.12545 0.346057,0.24071 2.576502,3.36616 -0.02872,-3.84721 0.148225,0.403 0.176949,4.25022 2.227827,-3.16087 -0.11679,0.4061 -2.344617,3.56697 3.664537,-1.17186 -0.333324,0.26102 -3.997861,1.43287 3.65816,1.22309 -0.423384,0.0198 -4.081544,-1.20332 2.2542,3.11487 -0.357065,-0.24193 -2.611265,-3.3568 -0.0082,3.8646 -0.141579,-0.39164 -0.133384,-4.25624 -2.213468,3.12016 0.121152,-0.41624 2.33462,-3.5364 -3.666637,1.20219 0.333324,-0.26102 3.99996,-1.46321 -3.667609,-1.1745 0.423384,-0.0198 z"
       inkscape:transform-center-x="-0.0085102682"
       inkscape:transform-center-y="0.0098271738"
       transform="matrix(1.293174,0,0,1.2850317,-89.810138,-89.825023)"
       inkscape:export-xdpi="96"
       inkscape:export-ydpi="96" />
  </g>
</svg>
