<?xml version="1.0" encoding="UTF-8" standalone="no"?>
<!-- Created with Inkscape (http://www.inkscape.org/) -->

<svg
   xmlns:dc="http://purl.org/dc/elements/1.1/"
   xmlns:cc="http://creativecommons.org/ns#"
   xmlns:rdf="http://www.w3.org/1999/02/22-rdf-syntax-ns#"
   xmlns:svg="http://www.w3.org/2000/svg"
   xmlns="http://www.w3.org/2000/svg"
   xmlns:xlink="http://www.w3.org/1999/xlink"
   xmlns:sodipodi="http://sodipodi.sourceforge.net/DTD/sodipodi-0.dtd"
   xmlns:inkscape="http://www.inkscape.org/namespaces/inkscape"
   width="210mm"
   height="297mm"
   viewBox="0 0 210 297"
   version="1.1"
   id="svg8"
   inkscape:version="0.92.2 5c3e80d, 2017-08-06"
   sodipodi:docname="7collageMonique.svg">
  <defs
     id="defs2">
    <linearGradient
       inkscape:collect="always"
       id="linearGradient6032">
      <stop
         style="stop-color:#00ffff;stop-opacity:1;"
         offset="0"
         id="stop6028" />
      <stop
         style="stop-color:#ff00ff;stop-opacity:1"
         offset="1"
         id="stop6030" />
    </linearGradient>
    <linearGradient
       inkscape:collect="always"
       id="linearGradient6024">
      <stop
         style="stop-color:#800080;stop-opacity:1;"
         offset="0"
         id="stop6020" />
      <stop
         style="stop-color:#0000ff;stop-opacity:1"
         offset="1"
         id="stop6022" />
    </linearGradient>
    <linearGradient
       inkscape:collect="always"
       id="linearGradient5992">
      <stop
         style="stop-color:#0000ff;stop-opacity:1;"
         offset="0"
         id="stop5988" />
      <stop
         style="stop-color:#0000ff;stop-opacity:0;"
         offset="1"
         id="stop5990" />
    </linearGradient>
    <pattern
       inkscape:collect="always"
       xlink:href="#Strips1_1"
       id="pattern5963"
       patternTransform="matrix(10,0,0,10,85.422622,9.8273806)" />
    <pattern
       inkscape:stockid="Stripes 1:1"
       id="Strips1_1"
       patternTransform="translate(0,0) scale(10,10)"
       height="1"
       width="2"
       patternUnits="userSpaceOnUse"
       inkscape:collect="always">
      <rect
         id="rect5245"
         height="2"
         width="1"
         y="-0.5"
         x="0"
         style="fill:black;stroke:none" />
    </pattern>
    <linearGradient
       inkscape:collect="always"
       xlink:href="#linearGradient5992"
       id="linearGradient5994"
       x1="-374.52902"
       y1="55.639652"
       x2="581.32233"
       y2="116.26292"
       gradientUnits="userSpaceOnUse"
       gradientTransform="matrix(1.0562701,0,0,0.84365333,198.7648,-373.71449)" />
    <linearGradient
       inkscape:collect="always"
       xlink:href="#linearGradient6024"
       id="linearGradient6026"
       x1="-379.4881"
       y1="225.94048"
       x2="-157.2381"
       y2="87.601189"
       gradientUnits="userSpaceOnUse"
       gradientTransform="matrix(1.9245072,0,0,1.9777876,856.63838,-106.47027)" />
    <linearGradient
       inkscape:collect="always"
       xlink:href="#linearGradient6032"
       id="linearGradient6034"
       x1="-216.20238"
       y1="188.14285"
       x2="-136.07143"
       y2="139.00595"
       gradientUnits="userSpaceOnUse"
       gradientTransform="translate(472.40193,-70.254645)" />
  </defs>
  <sodipodi:namedview
     id="base"
     pagecolor="#ffffff"
     bordercolor="#666666"
     borderopacity="1.0"
     inkscape:pageopacity="0.0"
     inkscape:pageshadow="2"
     inkscape:zoom="0.21843158"
     inkscape:cx="937.11451"
     inkscape:cy="669.64826"
     inkscape:document-units="mm"
     inkscape:current-layer="layer1"
     showgrid="false"
     inkscape:measure-start="-851.429,848.571"
     inkscape:measure-end="0,0"
     inkscape:window-width="1921"
     inkscape:window-height="951"
     inkscape:window-x="0"
     inkscape:window-y="1"
     inkscape:window-maximized="0" />
  <metadata
     id="metadata5">
    <rdf:RDF>
      <cc:Work
         rdf:about="">
        <dc:format>image/svg+xml</dc:format>
        <dc:type
           rdf:resource="http://purl.org/dc/dcmitype/StillImage" />
        <dc:title></dc:title>
      </cc:Work>
    </rdf:RDF>
  </metadata>
  <g
     inkscape:label="Layer 1"
     inkscape:groupmode="layer"
     id="layer1">
    <rect
       style="fill:url(#linearGradient5994);fill-opacity:1;stroke:#0d2013;stroke-width:2.3115449;stroke-miterlimit:4;stroke-dasharray:none;stroke-opacity:1"
       id="rect5965"
       width="873.27686"
       height="143.72792"
       x="-53.863579"
       y="-360.30515"
       rx="62.022476"
       inkscape:transform-center-x="160.41737"
       inkscape:transform-center-y="50.381294"
       transform="matrix(0.94669546,-0.32212994,-0.68567652,-0.72790639,0,0)" />
    <text
       xml:space="preserve"
       style="font-style:normal;font-weight:normal;font-size:77.62175751px;line-height:1.25;font-family:sans-serif;letter-spacing:0px;word-spacing:0px;fill:#10dcfb;fill-opacity:1;stroke:#0dfc59;stroke-width:0.71051413;stroke-miterlimit:4;stroke-dasharray:none;stroke-opacity:1"
       id="text4517"
       y="-186.04967"
       x="324.63483"
       transform="scale(0.99253022,1.007526)"><tspan
         sodipodi:role="line"
         id="tspan4515"
         x="324.63483"
         y="-186.04967"
         style="font-style:normal;font-variant:normal;font-weight:normal;font-stretch:normal;font-size:77.62175751px;font-family:'.Savoye LET CC.';-inkscape-font-specification:'.Savoye LET CC.';fill:#10dcfb;fill-opacity:1;stroke:#0dfc59;stroke-width:0.71051413;stroke-miterlimit:4;stroke-dasharray:none;stroke-opacity:1">Monique Dacanay =)</tspan></text>
    <ellipse
       style="fill:url(#linearGradient6026);fill-opacity:1;stroke:#13dbd1;stroke-width:2.46797132;stroke-miterlimit:4;stroke-dasharray:none;stroke-opacity:1"
       id="path6016"
       cx="276.15891"
       cy="225.26826"
       rx="94.564323"
       ry="88.211678" />
    <circle
       style="fill:url(#linearGradient6034);fill-opacity:1;stroke:#1d5af1;stroke-width:1.26499999;stroke-miterlimit:4;stroke-dasharray:none;stroke-opacity:1"
       id="path6018"
       cx="298.53287"
       cy="91.429878"
       r="26.458332" />
    <path
       style="fill:none;stroke:#000000;stroke-width:0.26458332px;stroke-linecap:butt;stroke-linejoin:miter;stroke-opacity:1"
       d="m -502.70833,2.9345239 c 5.29167,112.6369061 34.01785,70.3035701 34.01785,70.3035701 l 33.26191,-66.5238083 7.55952,121.7083343 13.60715,1.5119 -3.02382,-141.363091 -32.50594,-7.559524 -24.94643,54.428572 -18.14284,-58.964286 -24.94646,2.267857 1.51191,130.779762 20.41073,6.04762 z"
       id="path6036"
       inkscape:connector-curvature="0" />
    <path
       style="fill:none;stroke:#000000;stroke-width:0.26458332px;stroke-linecap:butt;stroke-linejoin:miter;stroke-opacity:1"
       d="m -385.53572,-14.452381 -3.77976,145.142861 25.70239,-0.75596 52.1607,-40.821426 15.875,-55.940475 -15.11903,-34.01785709 -28.72618,-10.58333291 -34.77382,-13.607143 -12.09524,6.803571 -3.02382,146.654763 z"
       id="path6038"
       inkscape:connector-curvature="0" />
    <path
       style="fill:none;stroke:#000000;stroke-width:0.26458332px;stroke-linecap:butt;stroke-linejoin:miter;stroke-opacity:1"
       d="m -361.34524,12.005952 -1.51191,83.910715 27.2143,-19.654763 11.33928,-33.261903 -9.82737,-23.434525 z"
       id="path6040"
       inkscape:connector-curvature="0" />
    <g
       id="g6077"
       transform="translate(614.46684,-217.20036)">
      <path
         sodipodi:nodetypes="ccccccc"
         inkscape:connector-curvature="0"
         id="path6042"
         d="m -304.64879,212.33333 c 74.08333,52.16072 95.24998,-3.02381 95.24998,-3.02381 l 1.51191,0.75595 -2.26786,-0.75595 0.75595,-0.75595 164.79762,-45.35714 h 0.755951"
         style="fill:#00ffe6;fill-opacity:1;stroke:#000000;stroke-width:0.26458332px;stroke-linecap:butt;stroke-linejoin:miter;stroke-opacity:1" />
      <path
         sodipodi:nodetypes="cccc"
         inkscape:connector-curvature="0"
         id="path6044"
         d="M -58.964284,242.57143 51.404781,293.97618 -445.25595,219.89286 Z"
         style="fill:#14ff00;fill-opacity:1;stroke:#000000;stroke-width:0.26458332px;stroke-linecap:butt;stroke-linejoin:miter;stroke-opacity:1" />
      <path
         inkscape:connector-curvature="0"
         id="path6046"
         d="M -64.255951,242.57143 -42.333333,184.36309 -275.9226,204.01785"
         style="fill:#ff6600;stroke:#000000;stroke-width:0.26458332px;stroke-linecap:butt;stroke-linejoin:miter;stroke-opacity:1" />
    </g>
    <path
       style="fill:none;stroke:#000000;stroke-width:0.26458332px;stroke-linecap:butt;stroke-linejoin:miter;stroke-opacity:1"
       d="m -102.05357,225.94047 h 1.5119 c 0,0 -20.41071,-71.81547 6.803577,-141.363091 l 9.827379,-1.511903 7.559524,4.535714"
       id="path6048"
       inkscape:connector-curvature="0" />
    <path
       style="fill:none;stroke:#000000;stroke-width:0.26458332px;stroke-linecap:butt;stroke-linejoin:miter;stroke-opacity:1"
       d="m -462.64284,213.08928 -3.77976,18.14286"
       id="path6061"
       inkscape:connector-curvature="0" />
    <path
       style="fill:#5ccc4d;fill-opacity:1;stroke:#000000;stroke-width:0.26458332px;stroke-linecap:butt;stroke-linejoin:miter;stroke-opacity:1"
       d="M 418.97996,332.3438 C 206.91301,391.43524 696.34796,150.90484 665.65462,181.59818 613.9479,233.3049 504.47143,106.27851 427.54507,131.92063 c -164.95588,54.98529 -0.35305,191.50503 35.97339,227.83148 22.52864,22.52863 51.06183,-32.54738 59.95564,-32.54738 30.10869,0 -153.97901,-199.28815 -140.4675,-239.822585 12.18062,-36.54187 171.69024,118.553995 200.42315,126.763375 50.09004,14.31145 447.09775,167.74542 447.09775,44.53849 0,-28.13635 -367.07884,-100.45807 -385.4291,-109.63318 -94.61603,-47.30802 26.7859,225.80722 -61.66865,181.57995 -12.72082,-6.3604 87.66412,-132.71477 82.22487,-149.0326 -53.57143,-160.714245 139.70844,219.65611 125.05036,161.02374 -2.77839,-11.11349 83.13043,-322.047485 73.6598,-322.047485 -83.14602,0 112.02918,195.627455 66.80771,210.701275 -27.89161,9.29721 -511.31639,102.09026 -512.19253,101.06809 z"
       id="path6079"
       inkscape:connector-curvature="0"
       sodipodi:nodetypes="csssssssssccssc" />
    <path
       style="fill:none;stroke:#000000;stroke-width:0.26458332px;stroke-linecap:butt;stroke-linejoin:miter;stroke-opacity:1"
       d="m -1055.2194,502.56222 c 5.7272,159.41953 183.69908,44.43696 258.66581,25.69528 117.89984,-29.47498 79.99526,80.51186 212.41429,80.51186 62.39854,0 95.82745,-54.81659 152.45866,-54.81659 54.38386,0 166.60878,127.60804 224.40541,89.07696 33.59871,-22.39915 56.94868,-43.03501 83.9379,-56.52961"
       id="path6092"
       inkscape:connector-curvature="0" />
    <path
       sodipodi:type="star"
       style="fill:#008080;fill-opacity:1;stroke:#1d5af1;stroke-width:1.26499999;stroke-miterlimit:4;stroke-dasharray:none;stroke-opacity:1"
       id="path6097"
       sodipodi:sides="21"
       sodipodi:cx="-79.944939"
       sodipodi:cy="-83.344109"
       sodipodi:r1="109.12346"
       sodipodi:r2="191.44466"
       sodipodi:arg1="0.90198417"
       sodipodi:arg2="1.0515838"
       inkscape:flatsided="false"
       inkscape:rounded="0"
       inkscape:randomized="0"
       d="m -12.282448,2.2696555 27.331697,80.6004375 -55.572851,-64.460147 2.36003,85.075744 -34.103944,-77.976749 -22.821335,81.991699 -9.604749,-84.564774 -45.97493,71.622331 15.74787,-83.638849 -65.04344,54.889005 39.70121,-75.2812442 -78.33256,33.2785502 60.12694,-60.234571 -84.66149,8.711149 75.21012,-39.835792 -83.46787,-16.630275 83.61055,-15.89743 -74.85777,-40.49402 84.58181,9.45349 -59.59622,-60.75971 78.03762,33.96443 -39.0393,-75.62662 64.55943,55.45748 -15.01355,-83.77377 45.34486,72.02288 10.346215,-84.47726 22.101199,82.18874 34.786669,-77.67458 -3.106252,85.05177 56.136178,-63.97016 -28.0377,80.35758 72.497742,-44.58172 -50.477875,68.52325 82.417563,-21.23199 -68.432868,50.60035 85.014219,4.00428 -80.3073,28.181375 80.05699,28.88477 -85.046075,3.25836 L 92.174736,0.47637837 9.9465975,-21.477793 59.82142,47.485634 Z"
       inkscape:transform-center-x="2.3949333"
       inkscape:transform-center-y="-15.988633" />
    <path
       sodipodi:type="star"
       style="fill:#5ccc4d;fill-opacity:1;stroke:#1d5af1;stroke-width:1.26499999;stroke-miterlimit:4;stroke-dasharray:none;stroke-opacity:1"
       id="path6099"
       sodipodi:sides="21"
       sodipodi:cx="-193.80592"
       sodipodi:cy="236.43565"
       sodipodi:r1="117.91865"
       sodipodi:r2="67.213631"
       sodipodi:arg1="0.5880026"
       sodipodi:arg2="0.73760225"
       inkscape:flatsided="false"
       inkscape:rounded="0"
       inkscape:randomized="0"
       d="m -95.691678,301.84515 -48.370562,-20.2073 24.73183,46.22102 -40.26539,-33.56702 10.00919,51.45739 -28.58246,-43.94417 -5.60283,52.12154 -14.35985,-50.41667 -20.717,48.15446 1.1387,-52.40944 -33.99039,39.90865 16.53607,-49.74541 -44.24357,28.11679 30.46412,-42.66127 -50.56551,13.82661 41.68532,-31.78648 -52.3945,-1.69212 49.20259,-18.08734 -49.568,-17.06048 52.34799,-2.78105 -42.33716,-30.91296 50.84205,12.77234 -31.34449,-42.01868 44.81856,27.19086 -17.56672,-49.39086 34.81276,39.19335 -2.22807,-52.37445 21.71368,47.71334 13.30856,-50.70432 6.68525,51.99379 27.66266,-44.52892 -8.9372,51.65437 39.55881,-34.39691 -23.76553,46.72522 47.939989,-21.20858 -36.482199,37.64433 52.061492,-6.13578 -45.957262,25.21859 51.557102,9.4822 -51.348812,10.55206 46.471629,24.25766 -52.177809,-5.05207 z"
       inkscape:transform-center-x="-0.56714132"
       inkscape:transform-center-y="-0.091611599" />
    <path
       sodipodi:type="star"
       style="fill:#00ffff;fill-opacity:1;stroke:#1d5af1;stroke-width:1.26499999;stroke-miterlimit:4;stroke-dasharray:none;stroke-opacity:1"
       id="path6101"
       sodipodi:sides="21"
       sodipodi:cx="632.29181"
       sodipodi:cy="414.49484"
       sodipodi:r1="40.203049"
       sodipodi:r2="44.670055"
       sodipodi:arg1="0.70862627"
       sodipodi:arg2="0.85822592"
       inkscape:flatsided="false"
       inkscape:rounded="0"
       inkscape:randomized="0"
       d="m 662.81624,440.65864 -1.32,7.63731 -7.74803,0.19754 -3.51249,6.90893 -7.46203,-2.09501 -5.39289,5.56666 -6.513,-4.20141 -6.7941,3.72977 -4.98526,-5.93449 -7.59162,1.56147 -3.01456,-7.14027 -7.7146,-0.74557 -0.77599,-7.7116 -7.1521,-2.98637 1.53151,-7.59772 -5.95411,-4.96182 3.70295,-6.80875 -4.22707,-6.49638 5.54535,-5.4148 -2.12443,-7.45371 6.89503,-3.53972 0.16697,-7.74874 7.63205,-1.35012 2.44354,-7.35527 7.69093,0.95945 4.50299,-6.30825 7.06644,3.18377 6.16232,-4.70072 5.81407,5.12519 7.27411,-2.6755 4.04508,6.61122 7.73956,-0.41256 1.91668,7.50982 7.51732,1.88704 -0.38203,7.74113 6.62712,4.01898 -2.64679,7.2846 5.14809,5.79381 -4.67638,6.18081 3.21162,7.05383 -6.29045,4.52783 0.98978,7.68709 z"
       inkscape:transform-center-x="0.11824838"
       inkscape:transform-center-y="0.13139226" />
    <path
       sodipodi:type="star"
       style="fill:#008080;fill-opacity:1;stroke:#1d5af1;stroke-width:1.26499999;stroke-miterlimit:4;stroke-dasharray:none;stroke-opacity:1"
       id="path6103"
       sodipodi:sides="21"
       sodipodi:cx="128.39642"
       sodipodi:cy="376.94495"
       sodipodi:r1="85.522346"
       sodipodi:r2="48.747738"
       sodipodi:arg1="0.91596426"
       sodipodi:arg2="1.0655639"
       inkscape:flatsided="false"
       inkscape:rounded="2.21"
       inkscape:randomized="0"
       d="m 180.48176,444.77701 c -66.64336,51.17259 45.03499,-65.84312 -28.4909,-25.17477 -73.525892,40.66835 84.94901,8.25796 6.18304,37.51361 -78.765965,29.25565 62.44181,-49.6436 -19.80474,-32.45417 -82.246541,17.18943 78.7409,32.93024 -5.14898,37.66947 -83.889867,4.73923 74.30041,-29.03304 -9.35883,-36.84988 -83.659236,-7.81684 65.5363,54.67653 -16.0235,34.47824 -81.559788,-20.1983 79.55708,-5.84275 1.91865,-37.97131 -77.63844,-32.12855 46.50851,71.56457 -25.474257,28.22346 -71.982767,-43.34112 77.744757,17.86669 13.025641,-35.71882 -64.719122,-53.5855 23.348246,82.09378 -32.661514,19.4609 -56.0097575,-62.63288 69.02448,39.98859 22.975253,-30.29255 -46.049228,-70.28115 -1.886618,85.3286 -36.946654,8.96915 -35.060035,-76.35944 54.171071,58.55734 30.883413,-22.17466 -23.287658,-80.732 -26.953846,80.98159 -37.948921,-2.31954 -10.995075,-83.30114 34.504325,71.923 36.047446,-12.08646 1.543122,-84.00946 -49.626107,69.43902 -35.579261,-13.40213 14.046846,-82.84116 11.771718,78.89799 38.008506,-0.92432 26.236788,-79.82232 -67.88887,51.72649 -30.048227,-23.29388 37.840643,-75.02038 -12.006859,78.86255 36.592342,10.31994 48.599203,-68.5426 -80.119409,29.41784 -21.847276,-31.11587 58.272129,-60.5337 -34.718573,71.81983 31.924789,20.64725 66.64336,-51.17258 -85.230987,4.49527 -11.705099,-36.17308 73.525889,-40.66835 -54.345389,58.39559 24.420579,29.13994 78.76597,-29.25565 -82.769419,-20.82671 -0.52287,-38.01615 82.24654,-17.18943 -69.143382,39.78266 14.74649,35.04343 83.88987,-4.73923 -72.953424,-44.29815 10.70581,-36.48131 83.65924,7.81684 -77.797674,17.63485 3.76212,37.83315 81.55979,20.19829 -56.655199,-63.83352 20.98324,-31.70496 77.63844,32.12855 -79.539311,-6.07988 -7.55654,37.26123 71.98276,43.34111 -35.32291,-77.69698 29.39621,-24.11148 64.71912,53.5855 -74.21352,-29.25439 -18.20377,33.37849 56.00976,62.63289 -10.85202,-84.65673 35.19721,-14.37558 46.04923,70.28114 -62.29354,-49.82952 -27.23351,26.52992 35.06004,76.35945 14.58312,-84.09436 37.87077,-3.36236 23.28766,80.732 -44.8385,-65.97708 -33.84343,17.32406 10.99508,83.30113 38.72248,-76.05984 37.17936,7.94962 -1.54312,84.00946 -23.39938,-76.26228 -37.44622,6.57887 -14.04685,82.84116 59.42117,-61.26706 33.18438,18.55526 -26.23678,79.82231 0.1189,-79.77126 -37.72174,-4.75088 -37.84065,75.02037 74.84004,-41.03044 26.24084,27.51216 -48.5992,68.54261 23.6266,-76.19219 -34.64553,-15.65849 -58.27213,60.53371 83.60904,-17.14808 16.96568,34.0245 z"
       inkscape:transform-center-x="-0.36047853"
       inkscape:transform-center-y="0.11736975" />
    <path
       sodipodi:type="star"
       style="fill:#008080;fill-opacity:1;stroke:#1d5af1;stroke-width:1.26499999;stroke-miterlimit:4;stroke-dasharray:none;stroke-opacity:1"
       id="path6105"
       sodipodi:sides="21"
       sodipodi:cx="1001.7343"
       sodipodi:cy="158.91328"
       sodipodi:r1="102.47373"
       sodipodi:r2="58.410027"
       sodipodi:arg1="0.99590773"
       sodipodi:arg2="1.1455074"
       inkscape:flatsided="false"
       inkscape:rounded="2.21"
       inkscape:randomized="0"
       d="m 1057.4535,244.91466 c -84.49426,54.74276 60.0894,-74.33266 -31.6201,-32.79454 -91.70957,41.53812 100.6715,17.99169 3.7953,45.39726 -96.87612,27.40557 79.3297,-53.31861 -20.549,-40.65777 -99.87869,12.66083 90.8958,46.86581 -9.75432,44.49909 -100.65014,-2.36673 91.52122,-27.56698 -7.65198,-44.90839 -99.17322,-17.34141 73.0436,71.5757 -22.43732,39.64698 -95.48093,-31.92873 95.58072,0.6341 5.92496,-45.1687 -89.65576,-45.8028 48.70116,89.92579 -33.12664,31.27207 -81.82782,-58.65373 91.1474,28.77884 18.97544,-41.41557 -72.172,-70.19441 20.03143,100.28556 -40.87252,20.11848 -60.90396,-80.16707 78.61529,54.36646 30.33986,-33.98248 -48.27543,-88.348934 -10.41819,101.73452 -44.9867,7.17729 -34.5685,-94.557232 59.09784,75.12337 39.00846,-23.5299 -20.08938,-98.653275 -39.94211,94.14392 -45.1036,-6.40164 -5.16149,-100.545567 34.32928,89.20524 44.21098,-10.98659 9.8817,-100.191835 -65.91701,78.18823 -41.21286,-19.41175 24.70415,-97.599988 6.51042,95.36084 45.48517,2.53292 38.97474,-92.827906 -86.03489,55.28517 -33.66018,-30.69704 52.37471,-85.982218 -21.88692,93.0432 42.7178,15.82738 64.60475,-77.215816 -98.50819,27.46978 -23.11664,-39.25477 75.39159,-66.72455 -48.33951,82.45828 36.15476,27.71551 84.49423,-54.742764 -102.2286,-2.78643 -10.51908,-44.324542 91.70951,-41.538115 -70.49692,64.546562 26.37922,37.140992 96.87609,-27.405575 -96.86556,-32.795046 3.01314,-45.455882 99.87865,-12.660836 -86.39038,40.89961 14.25975,43.266332 100.6501,2.36672 -82.89558,-59.889679 16.2776,-42.548265 99.1733,17.341413 -94.60763,13.618544 0.8733,45.547265 95.4809,31.92873 -61.55997,-81.662848 28.0958,-35.860046 89.6557,45.802806 -94.41866,-14.872589 -12.5908,43.781126 81.8278,58.65372 -34.7545,-96.179916 37.4175,-25.985505 72.172,70.194415 -85.84016,-42.042228 -24.9362,38.124845 60.904,80.16707 -4.8609,-102.15098 43.4145,-13.80204 48.2754,88.34894 -69.6343,-65.476232 -35.0658,29.081 34.5685,94.55723 25.4646,-99.04548 45.5539,-0.39221 20.0894,98.65328 -47.2412,-83.092377 -42.0797,17.45319 5.1615,100.54556 53.5274,-87.139354 43.6457,13.05248 -9.8817,100.19184 -20.6505,-93.325411 -45.3546,4.27457 -24.7041,97.59999 76.8341,-67.49051 37.8594,25.3374 -38.9748,92.82791 7.7751,-95.26607 -44.5996,-9.28385 -52.37475,85.98222 93.3137,-41.84484 28.709,35.37098 -64.6047,77.21582 35.5098,-88.74192 -39.8817,-22.01737 -75.39156,66.72455 101.5021,-12.48107 17.0078,42.26169 z"
       inkscape:transform-center-x="0.075713443"
       inkscape:transform-center-y="0.16175387" />
    <path
       sodipodi:type="star"
       style="fill:#008080;fill-opacity:1;stroke:#1d5af1;stroke-width:1.26499999;stroke-miterlimit:4;stroke-dasharray:none;stroke-opacity:1"
       id="path6107"
       sodipodi:sides="21"
       sodipodi:cx="284.65244"
       sodipodi:cy="-78.498962"
       sodipodi:r1="44.472546"
       sodipodi:r2="25.349352"
       sodipodi:arg1="1.0584069"
       sodipodi:arg2="1.2080065"
       inkscape:flatsided="false"
       inkscape:rounded="-10"
       inkscape:randomized="0"
       d="M 306.4556,-39.737779 C 478.77198,-136.66575 108.81039,15.36334 293.64851,-54.79959 478.48664,-124.96252 100.83101,6.7973533 294.06189,-35.033234 487.29275,-76.86382 88.956163,-40.63705 286.26333,-53.200847 483.5705,-65.764643 83.85615,-51.174439 280.8321,-34.19081 477.80805,-17.207182 86.490405,-100.00164 278.73501,-53.849952 470.97962,-7.6982641 84.722921,-111.57413 267.94177,-37.28536 451.16062,37.003412 101.63221,-157.45562 271.73248,-56.68923 441.83276,44.077162 103.35431,-169.03496 256.53626,-44.041919 409.7182,80.951114 133.03617,-207.89395 265.87795,-61.466399 398.71973,84.961162 138.09483,-218.45126 247.62899,-53.860138 357.16315,110.73098 177.9119,-246.83498 261.69161,-67.756985 c 83.77971,179.077995 -75.83398,-187.675195 -19.68019,1.889361 56.15377,189.564554 -9.73943,-204.950976 17.53402,-9.13442 27.27345,195.816574 -17.14665,-201.689776 -19.36276,-3.995416 -2.2161,197.69435 51.10364,-198.71633 19.44746,-3.560359 -31.65618,195.155979 43.06423,-197.783321 -17.32486,-9.525184 -60.38908,188.258134 107.40591,-174.824857 19.6329,2.330056 -87.77302,177.154923 99.44867,-176.302963 -13.74756,-14.208593 -113.19623,162.094354 154.16469,-135.39944 18.07386,8.013432 -136.09084,143.412874 146.99665,-139.157302 -8.94874,-17.629512 -155.94539,121.5277843 187.22528,-83.94318 14.90889,12.98478 -172.316393,96.9279666 181.48334,-89.64691 -3.35478,-19.48397 -184.838114,70.16294 203.65007,-25.02819 10.4192,16.80238 -193.230882,41.83058 199.84443,-32.171 2.53726,-19.60719 -197.307164,12.56381 201.97966,36.110648 5.00371,19.12701 -196.975948,-16.98364 200.44848,28.16345 8.20387,-17.98823 -192.24461,-46.15167 182.36246,94.040904 -0.85638,19.75212 -183.21885,-74.28878 183.24179,85.995456 13.14151,-14.77093 C 137.21875,-217.52803 453.86059,26.853562 300.67866,-98.139479 147.49671,-223.13252 450.43192,38.046904 317.59013,-108.38065 184.74835,-254.8082 415.28995,72.048025 305.7558,-92.543094 196.22165,-257.13422 408.71431,81.73346 324.93459,-97.344534 c -83.77972,-179.077986 40.177,201.210264 -15.97677,11.645707 -56.15378,-189.564563 47.01543,196.881487 19.74197,1.064922 -27.27345,-195.816555 -20.91571,204.113435 -18.6996,6.419085 2.21612,-197.69436 -13.10516,201.99264 18.55101,6.83666 31.65617,-195.15597 -80.14998,188.88023 -19.76089,0.6221 60.3891,-188.25814 -72.06131,189.15586 15.7117,12.000931 C 412.27501,-235.91005 192.23944,98.10906 305.43567,-63.985292 418.63191,-226.07965 180.82117,95.526457 316.91201,-47.886425 453.00283,-191.2993 144.28896,63.023653 300.23435,-58.504126 456.17975,-180.03191 134.13921,57.190194 306.4556,-39.737779 Z"
       inkscape:transform-center-x="0.085762427"
       inkscape:transform-center-y="-0.015728009" />
    <path
       sodipodi:type="star"
       style="fill:#00ffff;fill-opacity:1;stroke:#1d5af1;stroke-width:1.26499999;stroke-miterlimit:4;stroke-dasharray:none;stroke-opacity:1"
       id="path6109"
       sodipodi:sides="21"
       sodipodi:cx="798.2381"
       sodipodi:cy="17.192705"
       sodipodi:r1="81.156227"
       sodipodi:r2="46.259048"
       sodipodi:arg1="1.5707963"
       sodipodi:arg2="1.720396"
       inkscape:flatsided="false"
       inkscape:rounded="-5.4"
       inkscape:randomized="0"
       d="m 798.2381,98.348932 c 194.82523,5e-6 -199.54375,-64.451043 -6.89456,-35.413854 C 983.99273,91.972266 588.1472,37.317642 774.31688,94.743389 960.48658,152.16914 602.63558,-25.660829 778.16705,58.870667 953.69851,143.40216 591.54902,-25.501833 752.52117,84.247128 913.49333,193.99609 623.95695,-81.411822 766.77395,51.102986 909.59095,183.61779 613.31607,-84.52771 734.78761,67.792787 856.25915,220.11329 660.76397,-128.40137 758.17659,40.322228 855.5892,209.04582 651.51425,-134.51528 722.6919,46.842406 793.86954,228.2001 709.78616,-162.45425 753.13886,27.486311 796.49156,217.42686 702.7495,-171.02293 717.3088,23.25752 731.8681,217.53798 766.6677,-180.5447 752.1084,13.735761 737.5491,208.01622 762.46932,-190.8068 719.11663,-0.86625218 675.76393,189.0743 826.35441,-181.06532 755.17676,0.29237601 683.99912,181.65007 825.36736,-192.109 727.95474,-23.385407 630.54212,145.33819 883.54286,-163.96984 762.07132,-11.649341 640.59978,140.67116 885.85484,-174.81382 743.03784,-42.299018 600.22084,90.215791 933.15161,-130.77728 772.17945,-21.028315 611.2073,88.720646 938.55719,-140.45802 763.02573,-55.926528 c -175.53147,84.531497 207.74697,-28.510406 21.57728,28.915344 -186.16969,57.425748 194.18857,-65.083078 1.53938,-36.04589 -192.6492,29.03719 206.92094,33.990725 12.09571,33.990731 -194.82523,5e-6 204.7449,-4.953534 12.0957,-33.990731 -192.64919,-29.037199 187.70909,93.471631 1.53939,36.045891 C 625.7035,-84.436921 1008.9819,28.604971 833.45046,-55.92653 657.919,-140.45803 985.26891,88.720644 824.29675,-21.028314 663.32459,-130.77727 996.25534,90.215789 853.43835,-42.299021 710.62135,-174.81384 955.87643,140.67116 834.40488,-11.649339 712.93333,-163.96983 965.93406,145.33819 868.52145,-23.38541 771.10884,-192.10901 912.47709,181.65007 841.29943,0.292378 770.12178,-181.06531 920.71226,189.07429 877.35957,-0.86625642 834.00688,-190.80682 858.92711,208.01623 844.3678,13.735763 829.80848,-180.54469 864.60808,217.53797 879.1674,23.257515 893.72671,-171.02295 799.98465,217.42687 843.33734,27.486313 886.69002,-162.45424 802.60665,228.20009 873.7843,46.842402 944.96195,-134.51529 740.887,209.04583 838.29961,40.32223 935.71222,-128.40137 740.21705,220.11328 861.68859,67.792783 983.16014,-84.527715 686.88524,183.6178 829.70224,51.102988 972.51923,-81.411822 682.98287,193.99608 843.95503,84.247126 1004.9272,-25.501832 642.77768,143.40217 818.30915,58.870668 993.84061,-25.660834 635.98963,152.16913 822.15932,94.743388 1008.329,37.317647 612.48345,91.972278 805.13265,62.935078 997.78184,33.89788 603.41288,98.348928 798.2381,98.348932 Z"
       inkscape:transform-center-x="1.0056544e-05"
       inkscape:transform-center-y="0.12799689" />
    <path
       sodipodi:type="star"
       style="fill:#00ffff;fill-opacity:1;stroke:#1d5af1;stroke-width:1.26499999;stroke-miterlimit:4;stroke-dasharray:none;stroke-opacity:1"
       id="path6111"
       sodipodi:sides="21"
       sodipodi:cx="415.47141"
       sodipodi:cy="452.04471"
       sodipodi:r1="52.028969"
       sodipodi:r2="29.656513"
       sodipodi:arg1="1.1383886"
       sodipodi:arg2="1.2879882"
       inkscape:flatsided="false"
       inkscape:rounded="0.84"
       inkscape:randomized="0"
       d="m 437.27457,499.2849 c -17.64089,8.14195 5.12993,-24.18354 -13.52742,-18.76177 -18.65735,5.42178 17.89151,20.50913 -1.36553,23.08962 -19.25703,2.58048 12.03025,-21.59706 -7.3963,-21.91551 -19.42655,-0.31846 11.05147,24.87158 -8.11064,21.66131 -19.16211,-3.21028 17.86162,-17.09158 -0.608,-23.12197 -18.46962,-6.03038 3.22945,27.02409 -14.13509,18.3083 -17.36455,-8.71578 22.10591,-11.06744 6.23433,-22.27392 -15.87158,-11.20649 -4.87951,26.77537 -18.90358,13.32852 -14.02407,-13.44685 24.386,-4.05992 12.52272,-19.44676 -11.86328,-15.38684 -12.55491,24.14756 -21.9924,7.16445 -9.43749,-16.98311 24.49927,3.30835 17.6984,-14.89166 -6.80088,-18.20001 -19.11475,19.37413 -23.1271,0.36378 -4.01234,-19.01035 22.43569,10.38266 21.30151,-9.01337 -1.13419,-19.39603 -23.97616,12.87922 -22.20685,-6.46921 1.76931,-19.34844 18.37859,16.53442 23.01187,-2.33421 4.63328,-18.86862 -26.70718,5.23994 -19.31342,-12.72739 7.39375,-17.96732 12.68847,21.21703 22.67753,4.55237 9.98907,-16.66466 -27.06515,-2.86494 -14.70392,-17.85468 12.36124,-14.98973 5.87093,24.01441 20.32821,11.03445 14.45727,-12.97997 -25.01827,-10.71526 -8.78791,-21.39551 16.23036,-10.68024 -1.46827,24.67801 16.17262,16.53606 17.64089,-8.14195 -20.7484,-17.61347 -2.09105,-23.03524 18.65735,-5.42177 -8.67701,23.14885 10.58003,20.56837 19.25704,-2.58048 -14.63495,-22.94665 4.79161,-22.6282 19.42655,0.31845 -15.11476,19.56282 4.04735,22.77309 19.16211,3.21027 -7.22111,-26.24092 11.24851,-20.21054 18.46961,6.03038 -20.20949,14.23854 -2.84495,22.95433 17.36455,8.71578 0.83435,-27.20357 16.70593,-15.99709 15.87158,11.20648 -23.50853,7.64911 -9.48446,21.09597 14.02407,13.44685 8.81568,-25.74907 20.67896,-10.36223 11.86328,15.38685 -24.71873,0.38003 -15.28124,17.36314 9.43749,16.98312 16.01369,-22.00664 22.81457,-3.80662 6.80087,18.20001 -23.73256,-6.92283 -19.72021,12.08752 4.01234,19.01035 21.78881,-16.30883 22.923,3.0872 1.13418,19.39603 -20.63764,-13.61056 -22.40696,5.73787 -1.76931,19.34843 25.62792,-9.16191 20.99463,9.70672 -4.63328,18.86862 -15.70898,-19.08894 -23.10274,-1.12161 -7.39376,17.96732 27.18985,-1.20091 17.20079,15.46375 -9.98906,16.66466 -9.38452,-22.87117 -21.74575,-7.88144 -12.36124,14.98974 26.33586,6.8668 11.87859,19.84677 -14.45728,12.97996 -2.2262,-24.62121 -18.45656,-13.94096 -16.23036,10.68025 23.14181,14.32435 5.50092,22.4663 z"
       inkscape:transform-center-x="-0.048463891"
       inkscape:transform-center-y="-0.1729009" />
    <path
       sodipodi:type="star"
       style="fill:#00ffff;fill-opacity:1;stroke:#1d5af1;stroke-width:1.26499999;stroke-miterlimit:4;stroke-dasharray:none;stroke-opacity:1"
       id="path6113"
       sodipodi:sides="21"
       sodipodi:cx="835.78796"
       sodipodi:cy="401.17065"
       sodipodi:r1="114.88724"
       sodipodi:r2="65.485725"
       sodipodi:arg1="0.83014439"
       sodipodi:arg2="0.97974405"
       inkscape:flatsided="false"
       inkscape:rounded="1.19"
       inkscape:randomized="0.211"
       d="m 926.37326,471.31565 c -53.78017,31.82208 -28.12122,-54.82067 -73.97556,-23.18113 -45.85433,31.63954 78.43574,22.23464 13.96428,34.31132 -64.47146,12.07667 18.77361,-33.17066 -29.01004,-2.28307 -47.78366,30.88759 87.04052,63.82524 25.41773,55.42608 -61.62279,-8.39916 37.40974,-66.11503 -27.22995,-83.73441 -64.63969,-17.61937 21.59832,77.42701 -28.33571,55.45849 -49.93403,-21.96852 68.77518,-57.34683 10.09203,-64.18874 -58.68315,-6.84191 1.47012,98.62551 -50.2684,65.36468 -51.73852,-33.26083 53.34255,-10.17949 14.16306,-57.74783 -39.17948,-47.56834 40.11636,49.01898 -8.68208,18.98313 -48.79843,-30.03585 43.64636,-3.59372 -3.17311,-42.98805 -46.81947,-39.39434 -37.34535,102.81892 -54.28154,43.06842 -16.9362,-59.7505 70.86686,26.47688 61.44226,-36.52783 -9.42461,-63.00471 -43.20083,34.2476 -65.36726,-24.38068 -22.16643,-58.62829 63.15683,79.68123 40.74212,19.4213 -22.4147,-60.25993 -22.11179,45.47833 -29.03625,-13.82318 -6.92445,-59.30152 32.98767,8.96937 67.44155,-48.65547 34.45388,-57.62483 -97.78807,38.49525 -80.15051,-26.08119 17.63755,-64.57644 46.25722,101.02513 59.49895,43.19788 13.24173,-57.82725 -76.87776,-31.80667 -32.38541,-76.59044 44.49235,-44.78377 11.39324,115.26172 42.22936,62.36771 30.83613,-52.894 -73.57207,-31.14502 -31.0384,-78.6808 42.53366,-47.53579 -5.98954,62.85397 42.01436,31.49004 48.00391,-31.36392 -28.67657,-12.1816 27.29926,-43.9584 55.97583,-31.77679 -54.86624,67.53867 3.41117,71.16013 58.27742,3.62145 -51.72569,-73.08421 8.1953,-79.28346 59.92099,-6.19924 -29.69574,38.88348 24.03356,62.20687 53.72931,23.3234 -44.08543,-87.33418 9.63998,-59.65597 53.7254,27.6782 -33.17204,23.57001 8.79478,62.90098 41.96682,39.33098 -3.37601,-91.71665 36.94687,-49.33625 40.32288,42.38039 -88.90437,15.51252 -33.25332,48.3914 55.65105,32.87888 15.23257,-75.65918 37.52691,-20.74122 22.29434,54.91797 -34.8632,-16.00595 -6.01352,44.46135 28.84968,60.46729 54.67208,-33.56177 58.90663,22.65302 4.23455,56.21479 -83.96346,-39.67908 -62.17017,13.87618 21.79329,53.55526 26.84458,-43.77112 32.8743,17.50445 6.02971,61.27556 -18.40364,-76.6282 -43.76491,-16.09041 -25.36128,60.53779 60.98886,-17.91459 63.27236,46.12565 2.2835,64.04025 -53.55535,-90.45193 -67.88427,-33.15666 -14.32892,57.29527 79.04491,10.61294 30.02608,53.9481 -49.01883,43.33515 -14.68762,-69.10277 -40.40388,-7.36847 -25.71626,61.7343 102.27156,-15.6856 48.49139,16.13648 z"
       inkscape:transform-center-x="-0.035848438"
       inkscape:transform-center-y="-0.34069615" />
    <path
       sodipodi:type="star"
       style="fill:#00ffff;fill-opacity:1;stroke:#1d5af1;stroke-width:1.26499999;stroke-miterlimit:4;stroke-dasharray:none;stroke-opacity:1"
       id="path6115"
       sodipodi:sides="21"
       sodipodi:cx="78.73365"
       sodipodi:cy="86.236061"
       sodipodi:r1="30.571501"
       sodipodi:r2="17.425755"
       sodipodi:arg1="0.98279372"
       sodipodi:arg2="1.1323934"
       inkscape:flatsided="false"
       inkscape:rounded="0.84"
       inkscape:randomized="0"
       d="m 95.691668,111.67309 c -9.498942,6.33262 0.775786,-14.505369 -9.56089,-9.65921 -10.336676,4.84615 12.253303,10.27615 1.309798,13.52757 -10.943506,3.25143 5.016851,-13.63226 -6.289024,-12.0482 -11.305875,1.58407 8.679973,13.43134 -2.735717,13.31266 -11.415691,-0.11868 8.812148,-11.54788 -2.45835,-13.36666 -11.270498,-1.81877 4.335389,15.39309 -6.538152,11.91485 -10.873541,-3.47824 11.824447,-8.43741 1.590759,-13.49743 -10.233687,-5.060006 -0.394412,15.9871 -9.759642,9.45835 -9.36523,-6.52874 13.78609,-4.57724 5.498521,-12.428884 -8.287569,-7.851641 -5.089169,15.160574 -12.113946,6.161434 -7.024777,-8.999141 14.522781,-0.31037 8.917717,-10.255988 -5.605064,-9.945618 -9.331731,12.986978 -13.391873,2.317053 -4.060142,-10.669926 13.969058,3.984085 11.544534,-7.171802 -2.424524,-11.155884 -12.745127,9.659428 -13.479872,-1.733211 -0.734746,-11.392639 12.174122,7.924533 13.145567,-3.450368 0.971446,-11.3749 -15.026063,5.473594 -12.370126,-5.629471 2.655937,-11.103066 9.297463,11.160854 13.578561,0.577646 4.281097,-10.583207 -15.971867,0.801408 -10.161241,-9.025529 5.810627,-9.826936 5.594684,13.405484 12.805039,4.554335 7.210356,-8.851149 -15.498501,-3.941987 -7.049483,-11.619628 8.449017,-7.677641 1.394791,14.458978 10.893733,8.12635 9.498942,-6.332628 -13.648025,-8.335119 -3.311349,-13.181273 10.336676,-4.846153 -2.929034,14.227728 8.014472,10.976303 10.943505,-3.251424 -10.584863,-11.987639 0.721012,-13.571703 11.305876,-1.584064 -6.992601,12.732282 4.42309,12.850964 11.41569,0.118682 -6.581188,-14.575005 4.689309,-12.756228 11.270498,1.818777 -10.434845,10.105517 0.438696,13.58376 10.873541,3.478243 -1.992746,-15.867317 8.240941,-10.807306 10.233688,5.060011 -12.949908,6.580833 -3.584678,13.109579 9.36523,6.528747 2.77276,-15.749749 11.060329,-7.898107 8.287567,7.851641 -14.314314,2.471412 -7.289537,11.470555 7.024777,8.999143 7.291894,-14.232747 12.896954,-4.287128 5.60507,9.945619 -14.406828,-1.857604 -10.346685,8.812322 4.060142,10.669925 11.163115,-11.451102 13.587635,-0.295218 2.42452,11.155884 -13.219238,-6.021564 -12.484492,5.371075 0.734745,11.392639 14.042432,-7.651977 13.070992,3.722923 -0.97145,11.374905 -10.857058,-9.650481 -13.512994,1.452585 -2.655936,11.10307 15.674034,-3.17294 11.392934,7.410267 -4.2811,10.583203 -7.53018,-12.421911 -13.340807,-2.594974 -5.810626,9.826937 15.912917,1.588026 8.702567,10.439177 -7.21036,8.85115 -3.534216,-14.089602 -11.983233,-6.41196 -8.449017,7.67764 14.737873,6.20789 5.238931,12.54052 z"
       inkscape:transform-center-x="0.013509795"
       inkscape:transform-center-y="0.086293104" />
    <path
       sodipodi:type="star"
       style="fill:#00ffff;fill-opacity:1;stroke:#1d5af1;stroke-width:1.26499999;stroke-miterlimit:4;stroke-dasharray:none;stroke-opacity:1"
       id="path6117"
       sodipodi:sides="21"
       sodipodi:cx="505.10666"
       sodipodi:cy="105.61665"
       sodipodi:r1="93.45768"
       sodipodi:r2="53.270878"
       sodipodi:arg1="0.83123759"
       sodipodi:arg2="0.98083724"
       inkscape:flatsided="false"
       inkscape:rounded="0.84"
       inkscape:randomized="-1.011"
       d="m 557.14372,142.18587 c 4.20448,47.11573 59.04039,104.45648 22.95417,66.49436 -36.08622,-37.96212 -33.32836,73.69509 -59.1604,74.81641 -25.83204,1.12133 97.23434,-72.90626 80.5932,-98.21195 C 584.88955,159.97901 464.44001,216.62353 454.02233,167.45108 443.60466,118.27863 503.83803,79.396236 484.56543,65.671309 465.29284,51.946382 581.38791,220.96855 566.69697,238.5791 552.00602,256.18965 598.42452,93.911177 572.25256,90.203019 546.0806,86.494861 442.26797,294.67602 441.31779,249.39828 440.36761,204.12055 559.64675,84.075424 531.8707,100.91288 c -27.77605,16.83746 -77.39237,120.11743 -54.25603,79.41953 23.13634,-40.69791 64.51386,17.58454 19.1299,-2.00272 -45.38396,-19.58726 -20.74464,71.45609 -47.40802,63.38248 C 422.67317,233.63857 414.83014,90.413579 413.22078,66.848491 411.61142,43.283403 471.6441,89.357315 499.32637,48.437318 527.00864,7.5173215 486.7861,202.60624 469.39624,200.92638 c -17.38987,-1.67986 19.96219,-106.667846 2.33002,-111.062171 -17.63217,-4.394324 3.91456,-9.264981 -3.57014,-58.706598 -7.48471,-49.441617 -82.37301,119.349329 -79.52766,94.265939 2.84536,-25.08339 125.16696,22.24874 125.83259,-8.11431 0.66563,-30.363053 -139.50749,-38.082554 -106.07789,-15.80147 33.42961,22.28107 -11.2244,-67.37312 -9.24291,-95.7499572 1.98149,-28.3768368 60.88122,16.8128352 64.51171,-23.2847798 3.6305,-40.097614 -13.35468,48.148777 8.82396,85.746844 22.17864,37.598063 22.64268,-78.27405 18.08066,-129.764556 -4.56202,-51.490501 40.05265,152.656049 53.70468,177.666279 13.65204,25.01024 -3.96256,-198.181149 15.32158,-151.613597 19.28414,46.567553 9.65535,128.42582 41.25469,144.931517 31.59935,16.5057 -79.00329,-94.444647 -44.56901,-81.47553 34.43428,12.969117 -61.81666,97.67441 -29.33146,92.54302 32.48521,-5.13138 72.61736,-142.041674 93.13172,-128.1569115 20.51436,13.884763 -94.5961,13.3083176 -77.01698,9.7947723 17.57912,-3.5135453 79.74454,6.6464356 76.44636,23.7036722 -3.29817,17.057236 -40.02159,26.067823 1.28943,24.753193 41.31102,-1.31463 27.0374,-62.460663 55.25267,-71.965432 28.21527,-9.504769 -17.01958,46.518722 -44.68729,73.09271 -27.66771,26.573987 -69.35361,89.732586 -18.84852,102.731686 50.50509,12.9991 26.60877,-155.5253772 -4.11551,-125.930111 -30.72427,29.595266 55.81278,45.256372 36.17538,50.345032 -19.6374,5.088659 -144.21959,88.187159 -157.90864,100.227339 -13.68905,12.04018 154.49865,-14.45719 117.1605,1.31164 -37.33816,15.76884 -59.25272,-90.727986 -62.01547,-38.28221 -2.76276,52.44578 11.13853,-47.062255 15.34301,0.0535 z"
       inkscape:transform-center-x="-9.7188561"
       inkscape:transform-center-y="-11.610027" />
    <path
       sodipodi:type="star"
       style="fill:#00ffff;fill-opacity:1;stroke:#1d5af1;stroke-width:1.26499999;stroke-miterlimit:4;stroke-dasharray:none;stroke-opacity:1"
       id="path6119"
       sodipodi:sides="21"
       sodipodi:cx="844.26703"
       sodipodi:cy="395.11426"
       sodipodi:r1="49.42585"
       sodipodi:r2="28.172735"
       sodipodi:arg1="2.5127964"
       sodipodi:arg2="2.662396"
       inkscape:flatsided="false"
       inkscape:rounded="1.19"
       inkscape:randomized="0.211"
       d="m 798.17196,432.56871 c -20.15099,-17.65758 30.0201,-9.73558 14.68197,-28.23652 -15.33813,-18.50094 1.19991,29.46791 -12.3533,7.0649 -13.5532,-22.403 16.01587,25.73034 17.77964,-0.93445 1.76376,-26.6648 -21.4202,6.21513 -27.91922,-19.42664 -6.49901,-25.64177 28.15578,25.85979 23.94099,1.73222 -4.21479,-24.12756 -18.366,7.21904 -19.12261,-18.04858 -0.75662,-25.26761 3.96387,33.84468 13.83259,10.16169 9.86871,-23.68299 -26.47242,11.19057 -14.62231,-13.96154 11.85011,-25.15211 11.17848,21.19545 30.45725,-0.22574 19.27877,-21.42119 -28.04317,13.22141 -10.69181,-5.09367 17.35137,-18.31509 2.70763,19.58159 21.48532,1.9039 18.77769,-17.67769 -26.84114,-13.01595 -4.62387,-26.51157 22.21727,-13.49563 -28.49064,32.22842 -2.7944,22.57681 25.69625,-9.6516 -23.67382,-22.22593 3.1869,-22.24811 26.86073,-0.0222 -13.20683,28.80731 15.44177,30.15831 28.6486,1.351 -20.10247,-36.81798 5.65284,-31.71461 25.75531,5.10337 -27.86316,23.47999 -3.52413,29.31144 24.33904,5.83145 3.11203,-41.27989 28.05661,-27.567 24.94458,13.7129 -29.76513,21.0522 -6.29274,30.30081 23.4724,9.24862 -8.6924,-25.96937 10.08181,-8.10585 18.77421,17.86351 -37.7144,0.74368 -17.3793,14.97539 20.33509,14.23171 9.32314,-44.63557 15.03285,-16.52643 5.70972,28.10913 -23.78538,4.21912 -7.00554,27.67771 16.77985,23.45859 10.05303,-26.95737 21.46364,-5.94375 11.41061,21.01363 -14.98381,-20.83127 -12.77038,6.30525 2.21343,27.13652 16.10539,-11.31527 15.34088,13.42259 -0.76452,24.73785 -22.1548,-29.71341 -23.63638,-4.94307 -1.48158,24.77034 30.03364,-12.46366 17.30974,10.65991 -12.7239,23.12356 -1.91472,-11.42261 -16.40655,10.68746 -14.49183,22.11008 23.53072,-1.9053 5.5975,16.82442 -17.93323,18.72972 -8.99454,-45.39686 -25.30749,-27.54131 -16.31296,17.85555 38.58235,13.35546 20.28283,32.4529 -18.29952,19.09744 3.98494,-37.33874 -18.01352,-23.25872 -21.99847,14.08003 21.29071,23.66837 -6.09015,21.821 -27.38086,-1.84737 26.48329,-27.15302 -0.69068,-22.26027 -27.17396,4.89275 15.90518,28.23351 -11.26815,24.79195 -27.17333,-3.44155 34.36975,-28.52898 7.92013,-29.72802 -26.44963,-1.19904 -3.00745,31.50585 -27.39214,29.01833 -24.38469,-2.48753 32.75187,-8.13418 11.018,-20.14576 -21.73386,-12.01159 3.97184,16.58168 -20.08558,3.62686 -24.05742,-12.95482 24.66653,21.26299 12.17282,-3.93439 -12.49372,-25.19738 -2.59484,28.53973 -22.74583,10.88215 z"
       inkscape:transform-center-x="-0.44779927"
       inkscape:transform-center-y="4.1891209" />
    <path
       sodipodi:type="star"
       style="fill:#00ffff;fill-opacity:1;stroke:#1d5af1;stroke-width:1.26499999;stroke-miterlimit:4;stroke-dasharray:none;stroke-opacity:1"
       id="path6121"
       sodipodi:sides="232"
       sodipodi:cx="-465.13419"
       sodipodi:cy="313.95804"
       sodipodi:r1="67.712997"
       sodipodi:r2="66.956703"
       sodipodi:arg1="1.1071487"
       sodipodi:arg2="1.12069"
       inkscape:flatsided="true"
       inkscape:rounded="1.19"
       inkscape:randomized="0.211"
       d="m -422.52549,366.46637 c -1.6733,1.42621 -20.38549,3.31077 -22.20115,4.74797 -1.81565,1.43721 18.80233,2.9117 16.75518,3.74413 -2.04715,0.83243 -2.13691,1.09529 -4.28383,1.86401 -2.14691,0.76872 -18.38927,14.59246 -20.72873,14.83519 -2.33946,0.24272 23.04929,-28.24934 21.3398,-27.12902 -1.7095,1.12032 -20.2697,17.40005 -22.1384,18.11338 -1.8687,0.71332 14.12648,4.35044 11.86688,4.93043 -2.25959,0.57999 9.82938,-11.10374 7.44922,-10.80917 -2.38015,0.29458 -0.84541,-6.84149 -2.7059,-5.94101 -1.86049,0.90048 -6.08604,-0.44813 -8.33283,0.27569 -2.24678,0.72383 -20.11745,-1.19266 -22.20181,-1.11091 -2.08437,0.0817 20.32243,3.08937 17.97089,3.55825 -2.35154,0.46888 -19.2551,2.74334 -21.38897,3.13848 -2.13387,0.39514 1.84912,-6.18879 -0.48879,-6.50142 -2.3379,-0.31262 6.82965,3.17145 4.64469,3.84487 -2.18496,0.67342 16.27292,-4.12215 14.16628,-3.48292 -2.10665,0.63923 -6.69721,16.51243 -8.57229,17.1424 -1.87509,0.62998 -13.81993,-10.83684 -15.94154,-10.64213 -2.1216,0.19471 0.51033,-7.03187 -1.53102,-7.5814 -2.04135,-0.54953 21.17009,16.33013 18.8076,16.40545 -2.36249,0.0753 -1.61156,-9.71127 -3.59655,-10.38372 -1.98499,-0.67245 -20.92602,12.17746 -22.94833,12.14787 -2.02231,-0.0296 18.79676,-6.825 16.42086,-6.8125 -2.37589,0.0125 2.20893,-10.30774 0.21148,-10.11504 -1.99745,0.19269 -9.40095,0.25924 -11.46208,-0.33865 -2.06113,-0.59788 13.63792,-2.41218 11.33169,-2.91732 -2.30623,-0.50515 -14.03181,24.85378 -15.8984,24.21604 -1.8666,-0.63773 7.70159,-7.2496 5.68703,-7.2269 -2.01456,0.0227 2.24544,-2.98991 0.23841,-3.23337 -2.00702,-0.24345 2.84159,7.07054 0.95426,5.8591 -1.88734,-1.21145 -12.29279,-3.57317 -14.30369,-3.91538 -2.01089,-0.34221 2.83553,5.84967 0.84837,4.52837 -1.98717,-1.32131 11.0589,-7.54409 8.9773,-8.02151 -2.08159,-0.47743 0.14058,2.71457 -1.36169,1.39058 -1.50227,-1.32398 0.49161,-11.54438 -1.56586,-12.58506 -2.05747,-1.04067 -22.65173,18.02373 -24.43814,16.54275 -1.7864,-1.48098 6.38834,-16.98093 4.32191,-17.66221 -2.06644,-0.68129 19.05395,-6.04287 17.34355,-7.16465 -1.7104,-1.12179 -20.20021,20.98951 -22.13219,19.95855 -1.93199,-1.03095 9.91946,3.58143 8.17219,2.10877 -1.74728,-1.47266 5.21905,-16.69477 3.90637,-18.224 -1.31268,-1.52922 -18.24162,15.8913 -20.35449,14.98254 -2.11287,-0.90876 22.55698,-10.39203 20.7092,-11.4894 -1.84779,-1.09737 3.21674,-9.42358 1.80632,-10.95674 -1.41042,-1.53316 -24.11545,-0.43698 -25.5712,-2.29807 -1.45574,-1.86108 9.85523,10.09432 8.69998,8.4058 -1.15525,-1.68853 4.62462,12.83414 2.75975,11.76933 -1.86486,-1.06482 -2.78154,-3.58815 -4.07636,-5.46831 -1.29483,-1.88017 -14.20001,-3.85239 -15.50397,-5.81794 -1.30395,-1.96554 21.66372,-12.47642 20.67167,-14.21136 -0.99206,-1.73494 -11.8512,15.27722 -13.19576,13.48198 -1.34455,-1.79524 -2.64198,-11.2132 -4.08227,-12.76366 -1.44028,-1.55045 10.81745,17.0888 9.45005,15.59189 -1.3674,-1.49692 6.4236,-11.33776 4.89675,-13.13469 -1.52686,-1.79693 -6.46645,-1.73514 -7.56382,-3.52773 -1.09738,-1.79258 7.86799,8.10167 6.17772,6.53512 -1.69026,-1.56654 -17.87808,-2.98443 -18.40981,-4.88845 -0.53172,-1.90401 -4.35119,7.2611 -4.66693,5.17673 -0.31573,-2.08436 17.24054,-21.85885 16.54563,-23.71058 -0.6949,-1.85172 -8.80705,23.6423 -9.34409,21.57745 -0.53704,-2.06486 12.91543,-24.51908 11.87099,-26.39048 -1.04444,-1.87139 -1.84159,10.29439 -2.31466,8.00541 -0.47306,-2.28898 -13.78546,-4.78682 -14.74181,-6.71731 -0.95636,-1.93049 -7.32405,-0.2575 -8.16508,-2.07968 -0.84102,-1.82217 15.62811,6.69603 14.82875,4.46881 -0.79936,-2.22722 12.40048,10.89015 12.09438,8.73035 -0.30611,-2.15979 -20.33523,-8.08217 -20.48869,-10.39095 -0.15347,-2.30877 18.06173,-7.47073 18.21814,-9.77828 0.15642,-2.30755 2.33782,13.16027 1.28792,11.04814 -1.04991,-2.11213 -2.16771,0.3731 -2.71853,-1.74133 -0.55081,-2.11442 -1.57679,1.63379 -2.33752,-0.46462 -0.76073,-2.09841 -4.73486,-7.95206 -4.38956,-9.99679 0.34529,-2.04474 6.25844,-11.44301 6.81652,-13.53728 0.55808,-2.09427 -22.53122,21.71502 -22.70949,19.73594 -0.17826,-1.97908 4.56041,0.57314 4.70916,-1.7623 0.14875,-2.33543 5.87437,-3.37148 5.27054,-5.42374 -0.60384,-2.05225 -13.10368,6.85914 -13.16571,4.59346 -0.062,-2.26568 0.50006,-24.49944 0.0855,-26.44616 -0.41455,-1.94673 14.88964,9.89893 14.81826,7.91738 -0.0714,-1.98156 10.78269,16.93218 10.79018,14.72108 0.007,-2.2111 -18.93569,0.68695 -18.49654,-1.57927 0.43915,-2.26623 6.03488,-15.8482 7.12026,-17.91638 1.08539,-2.06819 -9.23239,-1.74768 -8.23086,-3.85929 1.00154,-2.11161 14.93508,8.38011 14.74798,6.27578 -0.18709,-2.10433 -2.45885,-13.83679 -2.11429,-15.79601 0.34455,-1.95922 -7.17446,15.58607 -6.40419,13.76712 0.77026,-1.81896 15.37429,9.07282 16.60442,7.29157 1.23013,-1.78125 -19.16207,-6.26422 -19.10608,-8.51243 0.056,-2.24822 5.98831,-9.81352 6.77787,-11.64116 0.78957,-1.82765 -9.52325,4.13529 -8.77237,2.27268 0.75089,-1.86262 2.54272,7.80351 3.62524,5.77116 1.08253,-2.03234 21.15486,-18.51213 21.98392,-20.58632 0.82906,-2.07418 -0.85494,17.85236 0.5026,16.06576 1.35753,-1.7866 -10.36645,-4.56595 -9.97787,-6.52152 0.38858,-1.95556 -13.65349,-9.21965 -11.89232,-10.84344 1.76117,-1.62379 4.62257,5.60619 6.23112,3.94295 1.60856,-1.66325 18.75496,12.77248 19.96754,10.99354 1.21257,-1.77895 -26.42481,-7.01755 -24.95576,-8.59441 1.46905,-1.57686 14.18389,-4.66657 15.60934,-6.02583 1.42545,-1.35925 -2.68942,6.42571 -1.83903,4.55522 0.85039,-1.87049 3.74259,-3.47396 5.29361,-5.20477 1.55103,-1.7308 -15.55518,11.50876 -14.40201,9.75093 1.15317,-1.75784 2.60753,-1.59555 4.52511,-2.76199 1.91759,-1.16643 8.71294,-6.69746 10.3226,-7.85461 1.60967,-1.15715 2.5445,-16.35013 4.38903,-17.27534 1.84453,-0.92521 -15.01176,25.41577 -13.86108,23.37744 1.15067,-2.03833 24.48744,-15.31873 25.70167,-17.10205 1.21423,-1.78332 -18.93982,0.12586 -17.43823,-1.23671 1.50159,-1.36257 4.8519,6.05001 6.44129,4.76052 1.58938,-1.28948 -2.89917,-8.73267 -1.42244,-10.36945 1.47673,-1.63677 6.36335,10.09066 8.02311,8.93485 1.65975,-1.15581 11.39711,9.81664 12.81585,8.45103 1.41874,-1.36561 -1.48195,-4.91415 0.38722,-6.40411 1.86917,-1.48996 -15.31277,0.33574 -13.14234,-0.58358 2.17044,-0.91932 13.48673,-2.77036 15.13274,-3.99568 1.646,-1.22533 -10.92625,-1.86417 -9.29442,-3.49095 1.63182,-1.62678 4.48568,10.94756 6.49054,10.68359 2.00486,-0.26398 -3.13508,-22.12608 -1.04503,-22.33963 2.09005,-0.21356 2.26158,-1.68145 4.28383,-1.86401 2.02225,-0.18256 2.85266,7.14641 5.01904,6.92426 2.16638,-0.22215 -7.8893,11.32878 -5.60024,11.00205 2.28907,-0.32672 -9.90552,-4.74028 -7.9774,-5.89155 1.92813,-1.15128 16.09125,-19.19733 18.21951,-19.62079 2.12825,-0.42347 -20.861,5.34959 -18.8666,5.25104 1.99441,-0.0985 12.16011,11.27945 14.12328,11.49914 1.96317,0.21968 4.63815,-13.30185 6.82132,-14.16023 2.18318,-0.85837 -5.46743,1.84245 -3.2917,2.07821 2.17573,0.23576 6.92956,9.31694 9.03413,9.35899 2.10457,0.042 -10.87102,-13.22202 -8.72591,-13.16365 2.14512,0.0584 0.19401,19.71248 2.05819,18.99512 1.86418,-0.71736 6.17143,-19.42426 8.21914,-20.15215 2.0477,-0.72789 -16.58147,1.31617 -14.19569,1.01439 2.38578,-0.30178 27.80977,16.68918 30.11658,16.77524 2.30681,0.0861 -20.607,-9.71454 -18.46704,-10.13218 2.13997,-0.41765 13.94473,10.00222 15.93622,10.79112 1.99149,0.78891 -7.02059,-19.26953 -4.63791,-19.61517 2.38268,-0.34565 -0.25582,2.79116 2.08597,2.82709 2.34179,0.0359 -6.01277,-2.12026 -4.11552,-1.42729 1.89726,0.69296 10.21568,5.937 12.15403,6.8125 1.93834,0.8755 -2.33909,9.4822 -0.18253,9.41963 2.15656,-0.0626 9.34557,4.16766 11.43359,4.198 2.08802,0.0303 -23.02201,3.80874 -21.23848,4.91583 1.78353,1.1071 -4.77996,-5.16351 -2.77061,-3.96756 2.00935,1.19595 19.29664,-3.29031 21.34785,-2.79827 2.05122,0.49205 -2.3147,2.90338 -0.23841,3.23338 2.0763,0.32999 -1.6157,6.82027 0.5862,7.33002 2.2019,0.50974 -15.82361,-25.92453 -14.2712,-24.65951 1.55242,1.26502 8.67133,24.46052 10.50442,25.59354 1.83308,1.13302 6.48905,-23.68812 8.2448,-22.1004 1.75575,1.58772 -0.63877,22.86761 1.36123,24.02035 2.00001,1.15274 3.57666,-8.5383 5.83014,-7.7092 2.25348,0.82909 -20.67297,8.46344 -18.30736,8.91397 2.36561,0.45052 3.64059,-16.95818 5.58443,-16.07513 1.94383,0.88305 9.14117,-1.83506 10.76124,-0.59306 1.62006,1.242 4.84871,-6.05429 6.42159,-4.527 1.57288,1.52729 5.72741,9.67896 7.53841,11.03456 1.811,1.35559 -19.77798,-0.93759 -17.57703,-0.0789 2.20096,0.85872 16.83843,-0.46902 18.81405,0.40323 1.97561,0.87226 -6.36513,-5.18348 -5.02755,-3.24674 1.33759,1.93675 9.33583,-3.64169 11.05796,-2.18659 1.72213,1.45511 -17.49974,14.05685 -15.86797,15.4414 1.63178,1.38456 -4.31514,-17.54428 -2.8663,-16.20636 1.44885,1.33793 7.43344,14.16686 8.56362,15.88405 1.13019,1.71719 -0.22074,9.44736 1.32359,11.07221 1.54433,1.62486 -0.32783,-21.23854 1.09969,-19.63878 1.42753,1.59977 6.97914,17.98525 7.93309,19.84385 0.95395,1.8586 -18.52026,-14.11539 -17.39059,-12.18182 1.12966,1.93357 15.58952,-7.711 16.91668,-6.01216 1.32716,1.69885 6.15271,9.09678 7.80101,10.74056 1.64831,1.64379 -21.27215,14.56998 -20.10693,16.5455 1.16521,1.97553 21.99056,-13.75687 23.27442,-11.90382 1.28387,1.85304 -8.99215,4.4718 -7.74759,6.38211 1.24457,1.91031 -8.09643,6.58327 -7.0543,8.32428 1.04213,1.74101 15.56147,-8.13661 15.9903,-6.09824 0.42883,2.03837 -1.28988,0.35254 -0.86489,2.64655 0.42498,2.294 -7.30113,-5.79425 -6.33711,-3.67736 0.96402,2.11689 -12.77142,13.9613 -12.37048,16.16423 0.40093,2.20292 22.58866,-10.03929 23.82907,-8.29513 1.24041,1.74416 -14.39803,-9.49475 -13.36206,-7.77196 1.03598,1.72278 9.76836,12.37575 9.73448,14.57337 -0.0339,2.19762 -9.59549,6.78355 -9.33814,8.73815 0.25735,1.9546 3.56839,-0.87993 3.61577,1.24903 0.0474,2.12895 -8.53491,-17.97617 -8.05679,-15.7154 0.47811,2.26076 9.69944,7.5619 10.35674,9.77828 0.65729,2.21638 -2.21569,-12.29937 -1.31687,-10.35272 0.89882,1.94664 15.22921,4.05708 15.11226,6.25122 -0.11696,2.19413 -11.21281,11.06979 -10.49781,12.91253 0.715,1.84274 3.96815,-6.59325 4.86057,-4.49248 0.89243,2.10078 -8.04789,-7.48357 -8.38684,-5.28432 -0.33896,2.19926 7.83859,6.84288 8.53933,8.88473 0.70075,2.04185 -17.81595,-10.03427 -17.54357,-8.03677 0.27238,1.9975 7.00679,16.26008 7.56434,18.38676 0.55755,2.12668 12.63055,-10.03525 13.16524,-7.75741 0.53469,2.27784 -2.03409,16.64948 -1.59609,18.88954 0.43801,2.24005 3.96398,-13.15009 3.50224,-11.05632 -0.46175,2.09376 1.22194,-13.83246 0.5047,-11.78323 -0.71724,2.04923 -21.97697,23.50641 -22.47207,25.64426 -0.49511,2.13786 21.43264,-12.82552 21.45462,-10.6585 0.022,2.16702 -20.47893,4.31545 -20.31462,6.32782 0.16431,2.01237 16.38945,2.38972 15.33795,4.4448 -1.0515,2.05508 -13.41737,3.00636 -13.5669,5.12121 -0.14953,2.11484 0.15838,-16.13212 -0.65628,-14.05683 -0.81465,2.07528 11.29836,6.15826 10.43001,8.0942 -0.86834,1.93594 3.56929,11.56494 2.89598,13.71774 -0.67331,2.15279 -18.27321,-5.53581 -19.64216,-3.7904 -1.36895,1.74542 2.57514,0.27897 1.89774,2.56502 -0.6774,2.28606 -1.08552,-19.95336 -2.08433,-17.99299 -0.9988,1.96037 20.65493,5.71446 19.45525,7.44299 -1.19968,1.72854 0.50191,9.82426 -0.47364,11.81372 -0.97556,1.98945 -1.81604,-13.418 -2.91583,-11.37857 -1.09979,2.03942 -2.13817,1.79422 -3.78842,3.33259 -1.65024,1.53837 -18.49796,7.24741 -19.0954,9.20038 -0.59744,1.95298 10.29148,10.63776 8.57748,11.94887 -1.71399,1.3111 11.08691,-1.11944 10.31552,0.88247 -0.7714,2.00191 -2.28686,-12.25642 -2.9801,-10.37302 -0.69324,1.88341 4.54799,-7.71662 3.85049,-5.85537 -0.6975,1.86124 -19.9206,21.87888 -21.00376,23.80027 -1.08316,1.92138 2.67882,-4.82585 1.53681,-2.9355 -1.142,1.89036 11.66905,-21.65493 9.90949,-20.13463 -1.75956,1.5203 -16.98554,21.70447 -18.92351,22.95067 -1.93797,1.2462 18.82118,-17.86555 16.81172,-16.68809 -2.00945,1.17745 1.3145,3.66305 -0.30907,5.24322 -1.62356,1.58017 4.65255,-6.87727 2.90308,-5.84035 -1.74947,1.03692 -22.28519,10.90477 -24.03034,11.91151 -1.74516,1.00674 24.0601,-6.39568 22.16254,-5.45594 -1.89755,0.93975 -13.36559,11.02525 -14.78813,12.41081 -1.42254,1.38555 -4.75665,5.93104 -6.48219,7.41821 -1.72554,1.48718 4.70869,3.7679 2.89475,4.6923 -1.81394,0.92441 -0.1144,-5.24325 -1.89826,-4.31647 -1.78385,0.92679 -12.94074,7.31446 -14.96246,8.3413 -2.02171,1.02683 21.1777,-3.47973 19.24689,-3.10947 -1.93081,0.37026 5.13403,-18.70958 3.46073,-17.28338 z"
       inkscape:transform-center-x="3.352105"
       inkscape:transform-center-y="-2.3800928" />
  </g>
</svg>
